<?xml version="1.0" standalone="no"?>
<!DOCTYPE svg PUBLIC "-//W3C//DTD SVG 20010904//EN"
 "http://www.w3.org/TR/2001/REC-SVG-20010904/DTD/svg10.dtd">
<svg version="1.0" xmlns="http://www.w3.org/2000/svg"
 width="1976.000000pt" height="1976.000000pt" viewBox="0 0 1976.000000 1976.000000"
 preserveAspectRatio="xMidYMid meet">
<metadata>
Created by potrace 1.11, written by Peter Selinger 2001-2013
</metadata>
<g transform="translate(0.000000,1976.000000) scale(0.100000,-0.100000)"
fill="#000000" stroke="none">
<path d="M19175 15936 c-77 -35 -248 -112 -380 -171 -132 -59 -303 -135 -380
-170 -77 -34 -374 -167 -660 -295 -286 -128 -585 -261 -665 -297 -80 -36 -163
-73 -185 -83 -109 -50 -285 -128 -770 -345 -291 -130 -568 -254 -615 -275 -92
-42 -825 -369 -955 -427 -44 -20 -105 -47 -135 -60 -30 -14 -100 -45 -155 -70
-55 -25 -128 -58 -163 -74 -35 -16 -65 -29 -67 -29 -2 0 -32 -13 -67 -29 -71
-33 -494 -222 -978 -438 -179 -80 -345 -154 -370 -166 -25 -12 -47 -22 -50
-22 -3 -1 -32 -14 -65 -29 -33 -15 -94 -43 -136 -61 -41 -18 -100 -44 -130
-58 -49 -23 -1161 -521 -1389 -622 -165 -73 -562 -251 -640 -287 -42 -20 -86
-38 -98 -42 -13 -5 -55 -23 -92 -42 -38 -19 -72 -34 -74 -34 -3 0 -36 -14 -73
-31 -90 -41 -306 -138 -591 -265 -128 -57 -252 -113 -275 -123 -23 -10 -85
-38 -137 -61 -52 -23 -120 -54 -150 -67 -30 -14 -181 -81 -335 -150 -154 -69
-300 -135 -325 -147 -25 -11 -47 -21 -50 -21 -3 -1 -25 -11 -50 -22 -25 -11
-130 -59 -235 -106 -104 -47 -215 -96 -245 -110 -30 -14 -156 -70 -280 -125
-124 -55 -250 -111 -280 -125 -58 -26 -80 -36 -250 -112 -58 -26 -121 -54
-140 -63 -19 -9 -37 -16 -40 -17 -3 -1 -32 -14 -65 -29 -33 -15 -98 -45 -145
-66 -47 -21 -115 -52 -153 -69 -37 -17 -69 -31 -71 -31 -2 0 -43 -18 -90 -40
-47 -22 -88 -40 -90 -40 -3 0 -37 -15 -78 -34 -40 -18 -199 -90 -353 -159
-154 -69 -307 -137 -340 -152 -33 -15 -78 -35 -100 -45 -40 -18 -94 -42 -195
-88 -30 -14 -59 -26 -65 -28 -8 -2 -196 -86 -320 -144 -11 -5 -65 -29 -120
-53 -55 -25 -135 -61 -178 -81 -43 -20 -80 -36 -82 -36 -3 0 -33 -13 -67 -29
-224 -102 -451 -201 -454 -199 -2 3 -115 187 -201 328 -31 52 -76 124 -98 160
-64 101 -385 621 -408 660 -10 19 -34 58 -52 85 -17 28 -76 122 -130 210 -101
165 -116 190 -178 287 -21 31 -37 61 -37 67 0 6 -4 11 -10 11 -5 0 -10 4 -10
9 0 16 -113 193 -127 198 -26 10 -58 -7 -77 -39 -11 -18 -34 -55 -51 -83 -33
-51 -202 -325 -220 -357 -5 -9 -26 -43 -46 -75 -49 -79 -713 -1157 -1087
-1763 -167 -272 -321 -522 -342 -555 -21 -33 -79 -127 -130 -210 -51 -82 -99
-161 -108 -175 -9 -14 -22 -34 -28 -45 -6 -11 -53 -87 -104 -169 -104 -168
-105 -175 -29 -214 24 -12 69 -36 99 -53 30 -18 80 -45 110 -62 30 -16 62 -36
71 -43 8 -8 19 -14 22 -14 4 0 53 -26 110 -59 56 -32 122 -70 147 -83 25 -14
119 -68 210 -120 91 -52 190 -108 220 -125 72 -39 106 -59 280 -158 191 -109
503 -286 560 -317 25 -14 90 -51 145 -83 189 -110 225 -126 249 -113 11 6 109
61 216 121 107 61 224 127 260 147 129 73 168 95 380 215 436 248 656 373 710
402 30 17 126 72 214 122 87 50 159 91 161 91 2 0 38 20 79 45 42 25 79 45 81
45 3 0 136 75 297 167 161 91 309 175 328 186 19 10 65 37 102 58 36 22 69 39
72 39 3 0 30 16 60 35 30 19 57 35 60 35 3 0 29 14 58 31 44 26 630 358 788
447 25 14 169 96 320 182 345 196 658 374 719 407 25 14 123 70 216 123 94 53
193 109 220 125 41 23 177 99 385 218 135 77 260 147 315 177 35 19 70 41 77
48 6 6 16 12 20 12 5 0 122 64 261 143 139 79 347 197 462 262 116 65 221 125
235 134 14 9 34 21 45 27 42 22 122 68 185 104 36 20 90 51 120 67 47 26 183
103 310 176 19 11 69 39 110 62 41 23 206 116 365 207 160 91 313 177 340 193
28 15 79 44 115 65 61 35 131 75 410 233 63 35 282 159 485 274 204 115 390
221 415 235 25 14 140 79 255 145 116 65 273 155 350 198 77 43 156 89 176
102 19 12 38 23 41 23 3 0 43 22 89 48 98 56 155 89 259 147 41 23 91 52 110
64 19 11 41 24 49 28 8 3 73 40 145 81 72 41 149 84 171 97 88 49 126 71 270
153 83 47 170 96 195 110 25 14 74 42 110 62 36 21 81 47 100 57 19 11 157 89
305 173 149 84 299 170 335 190 36 20 88 49 115 65 28 16 169 96 315 178 146
82 290 164 320 182 30 17 127 73 215 122 88 50 243 138 345 196 102 57 208
117 235 132 28 15 127 72 220 125 94 53 190 108 215 122 38 21 422 239 530
300 19 11 159 90 310 175 151 86 304 172 340 193 36 21 185 106 331 188 146
83 281 160 300 171 19 12 41 24 49 28 8 4 77 43 155 87 77 43 190 107 250 141
173 98 181 102 224 130 41 26 51 51 29 73 -9 9 -70 12 -217 11 l-206 -1 -140
-62z m-16960 -6369 c0 -656 -1 -1199 -3 -1208 -2 -10 -38 -32 -85 -52 -79 -34
-612 -272 -727 -324 -30 -14 -154 -69 -275 -123 -121 -54 -245 -109 -275 -123
-30 -14 -98 -44 -150 -67 -52 -23 -120 -53 -150 -67 -30 -14 -68 -31 -85 -38
-16 -8 -84 -38 -150 -68 -183 -82 -177 -89 -73 80 50 81 103 167 117 191 60
99 537 871 566 917 32 50 187 302 715 1160 155 253 293 476 305 495 76 116
255 414 255 423 0 6 3 7 7 3 4 -4 8 -543 8 -1199z m320 843 c59 -96 115 -187
124 -202 36 -60 132 -215 396 -643 153 -247 285 -462 294 -477 9 -15 38 -62
64 -104 26 -42 47 -78 45 -79 -2 -2 -109 -50 -238 -108 -129 -57 -270 -121
-313 -141 -43 -20 -80 -36 -82 -36 -2 0 -42 -18 -90 -40 -47 -23 -107 -49
-133 -59 -26 -11 -83 -36 -127 -56 -44 -21 -99 -46 -122 -56 l-43 -18 -1 27
c0 25 0 2261 1 2327 0 25 8 16 58 -65 32 -52 107 -174 167 -270z"/>
<path d="M16 6895 c-22 -22 -21 -25 21 -86 39 -57 226 -317 240 -334 5 -5 24
-32 43 -60 19 -27 38 -54 42 -60 8 -9 60 -81 102 -140 35 -49 295 -407 345
-477 31 -42 63 -86 71 -98 8 -12 35 -50 60 -84 25 -33 115 -157 200 -275 85
-117 206 -284 268 -370 63 -86 124 -172 137 -191 13 -19 63 -89 112 -155 48
-66 198 -272 332 -457 285 -396 268 -383 348 -270 26 37 51 72 56 77 4 6 87
120 184 255 97 135 239 333 316 440 141 196 432 600 497 691 79 110 429 597
488 677 34 48 70 98 80 112 9 14 80 112 157 219 77 106 152 209 166 229 14 21
67 95 118 166 113 156 119 169 97 191 -22 23 -36 17 -211 -88 -82 -49 -163
-98 -180 -107 -16 -9 -127 -75 -245 -145 -118 -71 -262 -156 -320 -190 -259
-153 -608 -360 -640 -380 -19 -12 -147 -89 -285 -170 -137 -81 -272 -161 -298
-178 -27 -17 -54 -30 -60 -30 -7 0 -46 20 -87 45 -41 25 -154 91 -250 148 -96
57 -229 136 -295 175 -66 40 -244 146 -395 235 -151 89 -303 180 -337 201 -34
22 -65 39 -68 39 -4 0 -25 13 -48 29 -23 15 -46 30 -52 32 -9 4 -173 100 -507
300 -169 101 -180 105 -202 84z m227 -195 c4 0 31 -16 61 -35 30 -19 58 -35
62 -35 4 0 22 -11 40 -25 18 -14 35 -25 39 -25 3 0 31 -16 61 -35 30 -19 56
-35 58 -35 2 0 55 -31 118 -68 142 -86 926 -552 953 -567 11 -5 31 -18 45 -26
14 -9 138 -83 275 -164 138 -81 252 -149 254 -151 7 -6 7 -1584 0 -1584 -4 0
-32 35 -63 78 -30 42 -62 86 -70 97 -8 11 -140 193 -293 405 -153 212 -286
396 -296 410 -18 25 -584 807 -611 845 -8 11 -76 106 -152 210 -76 105 -211
291 -300 415 -90 124 -177 243 -193 266 -35 46 -41 66 -13 41 10 -10 22 -17
25 -17z m4020 -46 c-87 -121 -121 -168 -174 -244 -29 -41 -56 -79 -61 -85 -5
-5 -59 -80 -120 -165 -62 -85 -162 -225 -223 -310 -62 -85 -185 -256 -274
-380 -89 -124 -167 -232 -174 -240 -6 -8 -20 -26 -29 -40 -30 -44 -128 -182
-358 -501 -124 -171 -237 -328 -251 -348 -118 -166 -289 -402 -290 -399 -5 14
-12 1588 -8 1592 5 4 1062 632 1111 660 20 12 85 50 145 86 59 36 117 70 128
76 11 6 79 46 150 89 72 43 144 86 160 95 17 10 83 49 149 89 65 39 122 71
126 71 4 0 13 7 20 15 7 9 15 13 17 11 3 -3 -17 -35 -44 -72z"/>
</g>
</svg>
