<svg xmlns="http://www.w3.org/2000/svg" viewBox="0 0 200 200"><title>placeholder-qr</title><g id="Layer_2" data-name="Layer 2"><g id="Layer_2-2" data-name="Layer 2"><rect width="200" height="200" style="fill:#fff"/><rect x="13" y="13" width="6" height="6"/><rect x="19" y="13" width="6" height="6"/><rect x="25" y="13" width="6" height="6"/><rect x="31" y="13" width="6" height="6"/><rect x="37" y="13" width="6" height="6"/><rect x="43" y="13" width="6" height="6"/><rect x="49" y="13" width="6" height="6"/><rect x="73" y="13" width="6" height="6"/><rect x="85" y="13" width="6" height="6"/><rect x="109" y="13" width="6" height="6"/><rect x="121" y="13" width="6" height="6"/><rect x="127" y="13" width="6" height="6"/><rect x="133" y="13" width="6" height="6"/><rect x="145" y="13" width="6" height="6"/><rect x="151" y="13" width="6" height="6"/><rect x="157" y="13" width="6" height="6"/><rect x="163" y="13" width="6" height="6"/><rect x="169" y="13" width="6" height="6"/><rect x="175" y="13" width="6" height="6"/><rect x="181" y="13" width="6" height="6"/><rect x="13" y="19" width="6" height="6"/><rect x="49" y="19" width="6" height="6"/><rect x="61" y="19" width="6" height="6"/><rect x="73" y="19" width="6" height="6"/><rect x="103" y="19" width="6" height="6"/><rect x="115" y="19" width="6" height="6"/><rect x="121" y="19" width="6" height="6"/><rect x="133" y="19" width="6" height="6"/><rect x="145" y="19" width="6" height="6"/><rect x="181" y="19" width="6" height="6"/><rect x="13" y="25" width="6" height="6"/><rect x="25" y="25" width="6" height="6"/><rect x="31" y="25" width="6" height="6"/><rect x="37" y="25" width="6" height="6"/><rect x="49" y="25" width="6" height="6"/><rect x="85" y="25" width="6" height="6"/><rect x="97" y="25" width="6" height="6"/><rect x="103" y="25" width="6" height="6"/><rect x="121" y="25" width="6" height="6"/><rect x="145" y="25" width="6" height="6"/><rect x="157" y="25" width="6" height="6"/><rect x="163" y="25" width="6" height="6"/><rect x="169" y="25" width="6" height="6"/><rect x="181" y="25" width="6" height="6"/><rect x="13" y="31" width="6" height="6"/><rect x="25" y="31" width="6" height="6"/><rect x="31" y="31" width="6" height="6"/><rect x="37" y="31" width="6" height="6"/><rect x="49" y="31" width="6" height="6"/><rect x="61" y="31" width="6" height="6"/><rect x="67" y="31" width="6" height="6"/><rect x="73" y="31" width="6" height="6"/><rect x="85" y="31" width="6" height="6"/><rect x="91" y="31" width="6" height="6"/><rect x="109" y="31" width="6" height="6"/><rect x="115" y="31" width="6" height="6"/><rect x="121" y="31" width="6" height="6"/><rect x="133" y="31" width="6" height="6"/><rect x="145" y="31" width="6" height="6"/><rect x="157" y="31" width="6" height="6"/><rect x="163" y="31" width="6" height="6"/><rect x="169" y="31" width="6" height="6"/><rect x="181" y="31" width="6" height="6"/><rect x="13" y="37" width="6" height="6"/><rect x="25" y="37" width="6" height="6"/><rect x="31" y="37" width="6" height="6"/><rect x="37" y="37" width="6" height="6"/><rect x="49" y="37" width="6" height="6"/><rect x="67" y="37" width="6" height="6"/><rect x="97" y="37" width="6" height="6"/><rect x="127" y="37" width="6" height="6"/><rect x="145" y="37" width="6" height="6"/><rect x="157" y="37" width="6" height="6"/><rect x="163" y="37" width="6" height="6"/><rect x="169" y="37" width="6" height="6"/><rect x="181" y="37" width="6" height="6"/><rect x="13" y="43" width="6" height="6"/><rect x="49" y="43" width="6" height="6"/><rect x="61" y="43" width="6" height="6"/><rect x="67" y="43" width="6" height="6"/><rect x="79" y="43" width="6" height="6"/><rect x="85" y="43" width="6" height="6"/><rect x="91" y="43" width="6" height="6"/><rect x="97" y="43" width="6" height="6"/><rect x="103" y="43" width="6" height="6"/><rect x="133" y="43" width="6" height="6"/><rect x="145" y="43" width="6" height="6"/><rect x="181" y="43" width="6" height="6"/><rect x="13" y="49" width="6" height="6"/><rect x="19" y="49" width="6" height="6"/><rect x="25" y="49" width="6" height="6"/><rect x="31" y="49" width="6" height="6"/><rect x="37" y="49" width="6" height="6"/><rect x="43" y="49" width="6" height="6"/><rect x="49" y="49" width="6" height="6"/><rect x="61" y="49" width="6" height="6"/><rect x="73" y="49" width="6" height="6"/><rect x="85" y="49" width="6" height="6"/><rect x="97" y="49" width="6" height="6"/><rect x="109" y="49" width="6" height="6"/><rect x="121" y="49" width="6" height="6"/><rect x="133" y="49" width="6" height="6"/><rect x="145" y="49" width="6" height="6"/><rect x="151" y="49" width="6" height="6"/><rect x="157" y="49" width="6" height="6"/><rect x="163" y="49" width="6" height="6"/><rect x="169" y="49" width="6" height="6"/><rect x="175" y="49" width="6" height="6"/><rect x="181" y="49" width="6" height="6"/><rect x="67" y="55" width="6" height="6"/><rect x="73" y="55" width="6" height="6"/><rect x="79" y="55" width="6" height="6"/><rect x="103" y="55" width="6" height="6"/><rect x="133" y="55" width="6" height="6"/><rect x="13" y="61" width="6" height="6"/><rect x="19" y="61" width="6" height="6"/><rect x="25" y="61" width="6" height="6"/><rect x="31" y="61" width="6" height="6"/><rect x="37" y="61" width="6" height="6"/><rect x="49" y="61" width="6" height="6"/><rect x="55" y="61" width="6" height="6"/><rect x="61" y="61" width="6" height="6"/><rect x="67" y="61" width="6" height="6"/><rect x="79" y="61" width="6" height="6"/><rect x="91" y="61" width="6" height="6"/><rect x="109" y="61" width="6" height="6"/><rect x="115" y="61" width="6" height="6"/><rect x="121" y="61" width="6" height="6"/><rect x="139" y="61" width="6" height="6"/><rect x="151" y="61" width="6" height="6"/><rect x="163" y="61" width="6" height="6"/><rect x="175" y="61" width="6" height="6"/><rect x="19" y="67" width="6" height="6"/><rect x="37" y="67" width="6" height="6"/><rect x="43" y="67" width="6" height="6"/><rect x="55" y="67" width="6" height="6"/><rect x="73" y="67" width="6" height="6"/><rect x="85" y="67" width="6" height="6"/><rect x="97" y="67" width="6" height="6"/><rect x="127" y="67" width="6" height="6"/><rect x="133" y="67" width="6" height="6"/><rect x="145" y="67" width="6" height="6"/><rect x="157" y="67" width="6" height="6"/><rect x="163" y="67" width="6" height="6"/><rect x="175" y="67" width="6" height="6"/><rect x="181" y="67" width="6" height="6"/><rect x="25" y="73" width="6" height="6"/><rect x="37" y="73" width="6" height="6"/><rect x="43" y="73" width="6" height="6"/><rect x="49" y="73" width="6" height="6"/><rect x="73" y="73" width="6" height="6"/><rect x="97" y="73" width="6" height="6"/><rect x="103" y="73" width="6" height="6"/><rect x="115" y="73" width="6" height="6"/><rect x="121" y="73" width="6" height="6"/><rect x="139" y="73" width="6" height="6"/><rect x="151" y="73" width="6" height="6"/><rect x="157" y="73" width="6" height="6"/><rect x="169" y="73" width="6" height="6"/><rect x="13" y="79" width="6" height="6"/><rect x="19" y="79" width="6" height="6"/><rect x="31" y="79" width="6" height="6"/><rect x="61" y="79" width="6" height="6"/><rect x="85" y="79" width="6" height="6"/><rect x="109" y="79" width="6" height="6"/><rect x="133" y="79" width="6" height="6"/><rect x="145" y="79" width="6" height="6"/><rect x="175" y="79" width="6" height="6"/><rect x="13" y="85" width="6" height="6"/><rect x="31" y="85" width="6" height="6"/><rect x="49" y="85" width="6" height="6"/><rect x="61" y="85" width="6" height="6"/><rect x="67" y="85" width="6" height="6"/><rect x="73" y="85" width="6" height="6"/><rect x="85" y="85" width="6" height="6"/><rect x="91" y="85" width="6" height="6"/><rect x="97" y="85" width="6" height="6"/><rect x="103" y="85" width="6" height="6"/><rect x="115" y="85" width="6" height="6"/><rect x="121" y="85" width="6" height="6"/><rect x="133" y="85" width="6" height="6"/><rect x="139" y="85" width="6" height="6"/><rect x="151" y="85" width="6" height="6"/><rect x="163" y="85" width="6" height="6"/><rect x="169" y="85" width="6" height="6"/><rect x="175" y="85" width="6" height="6"/><rect x="181" y="85" width="6" height="6"/><rect x="13" y="91" width="6" height="6"/><rect x="19" y="91" width="6" height="6"/><rect x="31" y="91" width="6" height="6"/><rect x="43" y="91" width="6" height="6"/><rect x="67" y="91" width="6" height="6"/><rect x="109" y="91" width="6" height="6"/><rect x="127" y="91" width="6" height="6"/><rect x="145" y="91" width="6" height="6"/><rect x="157" y="91" width="6" height="6"/><rect x="169" y="91" width="6" height="6"/><rect x="181" y="91" width="6" height="6"/><rect x="25" y="97" width="6" height="6"/><rect x="37" y="97" width="6" height="6"/><rect x="43" y="97" width="6" height="6"/><rect x="49" y="97" width="6" height="6"/><rect x="73" y="97" width="6" height="6"/><rect x="79" y="97" width="6" height="6"/><rect x="85" y="97" width="6" height="6"/><rect x="97" y="97" width="6" height="6"/><rect x="103" y="97" width="6" height="6"/><rect x="115" y="97" width="6" height="6"/><rect x="151" y="97" width="6" height="6"/><rect x="163" y="97" width="6" height="6"/><rect x="175" y="97" width="6" height="6"/><rect x="13" y="103" width="6" height="6"/><rect x="25" y="103" width="6" height="6"/><rect x="31" y="103" width="6" height="6"/><rect x="43" y="103" width="6" height="6"/><rect x="61" y="103" width="6" height="6"/><rect x="73" y="103" width="6" height="6"/><rect x="79" y="103" width="6" height="6"/><rect x="97" y="103" width="6" height="6"/><rect x="103" y="103" width="6" height="6"/><rect x="121" y="103" width="6" height="6"/><rect x="127" y="103" width="6" height="6"/><rect x="139" y="103" width="6" height="6"/><rect x="145" y="103" width="6" height="6"/><rect x="157" y="103" width="6" height="6"/><rect x="175" y="103" width="6" height="6"/><rect x="13" y="109" width="6" height="6"/><rect x="25" y="109" width="6" height="6"/><rect x="31" y="109" width="6" height="6"/><rect x="49" y="109" width="6" height="6"/><rect x="73" y="109" width="6" height="6"/><rect x="79" y="109" width="6" height="6"/><rect x="91" y="109" width="6" height="6"/><rect x="109" y="109" width="6" height="6"/><rect x="115" y="109" width="6" height="6"/><rect x="139" y="109" width="6" height="6"/><rect x="163" y="109" width="6" height="6"/><rect x="169" y="109" width="6" height="6"/><rect x="175" y="109" width="6" height="6"/><rect x="181" y="109" width="6" height="6"/><rect x="13" y="115" width="6" height="6"/><rect x="25" y="115" width="6" height="6"/><rect x="31" y="115" width="6" height="6"/><rect x="37" y="115" width="6" height="6"/><rect x="43" y="115" width="6" height="6"/><rect x="55" y="115" width="6" height="6"/><rect x="61" y="115" width="6" height="6"/><rect x="85" y="115" width="6" height="6"/><rect x="97" y="115" width="6" height="6"/><rect x="121" y="115" width="6" height="6"/><rect x="127" y="115" width="6" height="6"/><rect x="133" y="115" width="6" height="6"/><rect x="145" y="115" width="6" height="6"/><rect x="151" y="115" width="6" height="6"/><rect x="157" y="115" width="6" height="6"/><rect x="163" y="115" width="6" height="6"/><rect x="181" y="115" width="6" height="6"/><rect x="13" y="121" width="6" height="6"/><rect x="25" y="121" width="6" height="6"/><rect x="31" y="121" width="6" height="6"/><rect x="37" y="121" width="6" height="6"/><rect x="49" y="121" width="6" height="6"/><rect x="67" y="121" width="6" height="6"/><rect x="91" y="121" width="6" height="6"/><rect x="97" y="121" width="6" height="6"/><rect x="103" y="121" width="6" height="6"/><rect x="109" y="121" width="6" height="6"/><rect x="115" y="121" width="6" height="6"/><rect x="121" y="121" width="6" height="6"/><rect x="133" y="121" width="6" height="6"/><rect x="139" y="121" width="6" height="6"/><rect x="151" y="121" width="6" height="6"/><rect x="163" y="121" width="6" height="6"/><rect x="13" y="127" width="6" height="6"/><rect x="31" y="127" width="6" height="6"/><rect x="37" y="127" width="6" height="6"/><rect x="43" y="127" width="6" height="6"/><rect x="55" y="127" width="6" height="6"/><rect x="67" y="127" width="6" height="6"/><rect x="85" y="127" width="6" height="6"/><rect x="97" y="127" width="6" height="6"/><rect x="103" y="127" width="6" height="6"/><rect x="109" y="127" width="6" height="6"/><rect x="133" y="127" width="6" height="6"/><rect x="139" y="127" width="6" height="6"/><rect x="157" y="127" width="6" height="6"/><rect x="175" y="127" width="6" height="6"/><rect x="13" y="133" width="6" height="6"/><rect x="25" y="133" width="6" height="6"/><rect x="31" y="133" width="6" height="6"/><rect x="37" y="133" width="6" height="6"/><rect x="43" y="133" width="6" height="6"/><rect x="49" y="133" width="6" height="6"/><rect x="55" y="133" width="6" height="6"/><rect x="73" y="133" width="6" height="6"/><rect x="85" y="133" width="6" height="6"/><rect x="91" y="133" width="6" height="6"/><rect x="103" y="133" width="6" height="6"/><rect x="115" y="133" width="6" height="6"/><rect x="121" y="133" width="6" height="6"/><rect x="133" y="133" width="6" height="6"/><rect x="139" y="133" width="6" height="6"/><rect x="145" y="133" width="6" height="6"/><rect x="151" y="133" width="6" height="6"/><rect x="157" y="133" width="6" height="6"/><rect x="163" y="133" width="6" height="6"/><rect x="169" y="133" width="6" height="6"/><rect x="175" y="133" width="6" height="6"/><rect x="61" y="139" width="6" height="6"/><rect x="73" y="139" width="6" height="6"/><rect x="91" y="139" width="6" height="6"/><rect x="97" y="139" width="6" height="6"/><rect x="109" y="139" width="6" height="6"/><rect x="127" y="139" width="6" height="6"/><rect x="133" y="139" width="6" height="6"/><rect x="157" y="139" width="6" height="6"/><rect x="181" y="139" width="6" height="6"/><rect x="13" y="145" width="6" height="6"/><rect x="19" y="145" width="6" height="6"/><rect x="25" y="145" width="6" height="6"/><rect x="31" y="145" width="6" height="6"/><rect x="37" y="145" width="6" height="6"/><rect x="43" y="145" width="6" height="6"/><rect x="49" y="145" width="6" height="6"/><rect x="61" y="145" width="6" height="6"/><rect x="79" y="145" width="6" height="6"/><rect x="85" y="145" width="6" height="6"/><rect x="103" y="145" width="6" height="6"/><rect x="109" y="145" width="6" height="6"/><rect x="115" y="145" width="6" height="6"/><rect x="127" y="145" width="6" height="6"/><rect x="133" y="145" width="6" height="6"/><rect x="145" y="145" width="6" height="6"/><rect x="157" y="145" width="6" height="6"/><rect x="163" y="145" width="6" height="6"/><rect x="175" y="145" width="6" height="6"/><rect x="13" y="151" width="6" height="6"/><rect x="49" y="151" width="6" height="6"/><rect x="67" y="151" width="6" height="6"/><rect x="79" y="151" width="6" height="6"/><rect x="97" y="151" width="6" height="6"/><rect x="103" y="151" width="6" height="6"/><rect x="133" y="151" width="6" height="6"/><rect x="157" y="151" width="6" height="6"/><rect x="175" y="151" width="6" height="6"/><rect x="181" y="151" width="6" height="6"/><rect x="13" y="157" width="6" height="6"/><rect x="25" y="157" width="6" height="6"/><rect x="31" y="157" width="6" height="6"/><rect x="37" y="157" width="6" height="6"/><rect x="49" y="157" width="6" height="6"/><rect x="61" y="157" width="6" height="6"/><rect x="67" y="157" width="6" height="6"/><rect x="79" y="157" width="6" height="6"/><rect x="103" y="157" width="6" height="6"/><rect x="115" y="157" width="6" height="6"/><rect x="133" y="157" width="6" height="6"/><rect x="139" y="157" width="6" height="6"/><rect x="145" y="157" width="6" height="6"/><rect x="151" y="157" width="6" height="6"/><rect x="157" y="157" width="6" height="6"/><rect x="163" y="157" width="6" height="6"/><rect x="169" y="157" width="6" height="6"/><rect x="175" y="157" width="6" height="6"/><rect x="181" y="157" width="6" height="6"/><rect x="13" y="163" width="6" height="6"/><rect x="25" y="163" width="6" height="6"/><rect x="31" y="163" width="6" height="6"/><rect x="37" y="163" width="6" height="6"/><rect x="49" y="163" width="6" height="6"/><rect x="61" y="163" width="6" height="6"/><rect x="67" y="163" width="6" height="6"/><rect x="85" y="163" width="6" height="6"/><rect x="91" y="163" width="6" height="6"/><rect x="109" y="163" width="6" height="6"/><rect x="121" y="163" width="6" height="6"/><rect x="139" y="163" width="6" height="6"/><rect x="151" y="163" width="6" height="6"/><rect x="169" y="163" width="6" height="6"/><rect x="175" y="163" width="6" height="6"/><rect x="181" y="163" width="6" height="6"/><rect x="13" y="169" width="6" height="6"/><rect x="25" y="169" width="6" height="6"/><rect x="31" y="169" width="6" height="6"/><rect x="37" y="169" width="6" height="6"/><rect x="49" y="169" width="6" height="6"/><rect x="61" y="169" width="6" height="6"/><rect x="67" y="169" width="6" height="6"/><rect x="91" y="169" width="6" height="6"/><rect x="97" y="169" width="6" height="6"/><rect x="103" y="169" width="6" height="6"/><rect x="109" y="169" width="6" height="6"/><rect x="115" y="169" width="6" height="6"/><rect x="127" y="169" width="6" height="6"/><rect x="145" y="169" width="6" height="6"/><rect x="157" y="169" width="6" height="6"/><rect x="163" y="169" width="6" height="6"/><rect x="175" y="169" width="6" height="6"/><rect x="13" y="175" width="6" height="6"/><rect x="49" y="175" width="6" height="6"/><rect x="61" y="175" width="6" height="6"/><rect x="85" y="175" width="6" height="6"/><rect x="91" y="175" width="6" height="6"/><rect x="103" y="175" width="6" height="6"/><rect x="109" y="175" width="6" height="6"/><rect x="121" y="175" width="6" height="6"/><rect x="127" y="175" width="6" height="6"/><rect x="133" y="175" width="6" height="6"/><rect x="139" y="175" width="6" height="6"/><rect x="157" y="175" width="6" height="6"/><rect x="175" y="175" width="6" height="6"/><rect x="13" y="181" width="6" height="6"/><rect x="19" y="181" width="6" height="6"/><rect x="25" y="181" width="6" height="6"/><rect x="31" y="181" width="6" height="6"/><rect x="37" y="181" width="6" height="6"/><rect x="43" y="181" width="6" height="6"/><rect x="49" y="181" width="6" height="6"/><rect x="61" y="181" width="6" height="6"/><rect x="85" y="181" width="6" height="6"/><rect x="97" y="181" width="6" height="6"/><rect x="103" y="181" width="6" height="6"/><rect x="109" y="181" width="6" height="6"/><rect x="115" y="181" width="6" height="6"/><rect x="121" y="181" width="6" height="6"/><rect x="145" y="181" width="6" height="6"/><rect x="157" y="181" width="6" height="6"/><rect x="163" y="181" width="6" height="6"/><rect x="169" y="181" width="6" height="6"/><circle cx="100" cy="103" r="93" style="fill:#fff;opacity:0.85"/><path d="M76.56,67l3.93-8.08h3.28L78.05,69.72V76h-3V69.72L69.34,58.94h3.3Z"/><path d="M98.9,67.91a10.41,10.41,0,0,1-.87,4.4,6.52,6.52,0,0,1-2.48,2.91,7.28,7.28,0,0,1-7.4,0,6.64,6.64,0,0,1-2.51-2.89,10.16,10.16,0,0,1-.9-4.32v-1a10.36,10.36,0,0,1,.89-4.41,6.64,6.64,0,0,1,2.49-2.92,6.79,6.79,0,0,1,3.7-1,6.87,6.87,0,0,1,3.7,1A6.53,6.53,0,0,1,98,62.59,10.45,10.45,0,0,1,98.9,67Zm-3-.89a7.38,7.38,0,0,0-1.07-4.34,3.78,3.78,0,0,0-6,0,7.28,7.28,0,0,0-1.1,4.26v1a7.4,7.4,0,0,0,1.09,4.35,3.52,3.52,0,0,0,3,1.54,3.47,3.47,0,0,0,3-1.5,7.55,7.55,0,0,0,1.06-4.39Z"/><path d="M114.33,58.94v11.4a5.55,5.55,0,0,1-1.74,4.31A6.59,6.59,0,0,1,108,76.23a6.68,6.68,0,0,1-4.66-1.56,5.59,5.59,0,0,1-1.72-4.34V58.94h3V70.35A3.61,3.61,0,0,0,105.4,73a3.36,3.36,0,0,0,2.56.91c2.28,0,3.42-1.21,3.42-3.61V58.94Z"/><path d="M123.77,69.44h-3.31V76h-3V58.94h6a7,7,0,0,1,4.55,1.32,4.67,4.67,0,0,1,1.61,3.84,4.82,4.82,0,0,1-.83,2.87,5.17,5.17,0,0,1-2.3,1.77l3.83,7.11V76h-3.17Zm-3.31-2.39h3.05a3.39,3.39,0,0,0,2.34-.76,2.64,2.64,0,0,0,.85-2.07,2.81,2.81,0,0,0-.78-2.12,3.3,3.3,0,0,0-2.33-.77h-3.13Z"/><path d="M33.58,97.18h-7v5.25h8.19v2.37H23.61V87.74H34.69v2.39H26.58v4.71h7Z"/><path d="M49.74,90.13H44.42V104.8H41.48V90.13H36.21V87.74H49.74Z"/><path d="M65.53,104.8h-3V97.23H55v7.57H52V87.74h3v7.1h7.63v-7.1h3Z"/><path d="M84.56,100.83H78l-1.38,4H73.49l6.44-17.06h2.66l6.46,17.06H86Zm-5.78-2.39h5l-2.47-7.08Z"/><path d="M91,104.8V87.74h5a7.85,7.85,0,0,1,4,1,6.9,6.9,0,0,1,2.71,2.85,9.11,9.11,0,0,1,1,4.25v.85a9,9,0,0,1-1,4.27A6.76,6.76,0,0,1,100,103.8a8.22,8.22,0,0,1-4.1,1Zm3-14.67v12.3h1.93A4.42,4.42,0,0,0,99.46,101a6.33,6.33,0,0,0,1.27-4.19v-1a6.55,6.55,0,0,0-1.2-4.24A4.32,4.32,0,0,0,96,90.13Z"/><path d="M106.66,104.8V87.74h5a7.78,7.78,0,0,1,4,1,6.86,6.86,0,0,1,2.72,2.85,9.11,9.11,0,0,1,1,4.25v.85a9,9,0,0,1-1,4.27,6.76,6.76,0,0,1-2.75,2.83,8.22,8.22,0,0,1-4.1,1Zm3-14.67v12.3h1.93a4.42,4.42,0,0,0,3.58-1.46,6.33,6.33,0,0,0,1.27-4.19v-1a6.55,6.55,0,0,0-1.2-4.24,4.32,4.32,0,0,0-3.51-1.46Z"/><path d="M128.61,98.24h-3.3v6.56h-3V87.74h6a7,7,0,0,1,4.56,1.32,4.7,4.7,0,0,1,1.61,3.84,4.82,4.82,0,0,1-.83,2.87,5.23,5.23,0,0,1-2.3,1.77l3.83,7.11v.15H132Zm-3.3-2.39h3a3.44,3.44,0,0,0,2.35-.76,2.63,2.63,0,0,0,.84-2.07,2.81,2.81,0,0,0-.78-2.12,3.27,3.27,0,0,0-2.32-.77h-3.13Z"/><path d="M147.29,97.18h-7v5.25h8.19v2.37H137.32V87.74h11.07v2.39h-8.11v4.71h7Z"/><path d="M159.81,100.41a2.1,2.1,0,0,0-.79-1.74,9.35,9.35,0,0,0-2.86-1.23,13.57,13.57,0,0,1-3.28-1.38,4.39,4.39,0,0,1-2.33-3.82,4.15,4.15,0,0,1,1.68-3.4,6.82,6.82,0,0,1,4.37-1.34,7.34,7.34,0,0,1,3.17.66A5.21,5.21,0,0,1,162,90a4.8,4.8,0,0,1,.8,2.69h-2.95a2.66,2.66,0,0,0-.84-2.09,3.44,3.44,0,0,0-2.4-.76,3.61,3.61,0,0,0-2.25.62,2.07,2.07,0,0,0-.81,1.74,1.87,1.87,0,0,0,.87,1.56A10.09,10.09,0,0,0,157.24,95a12.81,12.81,0,0,1,3.2,1.35,5.15,5.15,0,0,1,1.77,1.73,4.57,4.57,0,0,1,.56,2.29,4.05,4.05,0,0,1-1.63,3.39A7.1,7.1,0,0,1,156.7,105a8.26,8.26,0,0,1-3.4-.68,5.8,5.8,0,0,1-2.42-1.89,4.78,4.78,0,0,1-.86-2.82h3a2.76,2.76,0,0,0,1,2.25,4.21,4.21,0,0,0,2.75.8,3.66,3.66,0,0,0,2.33-.63A2,2,0,0,0,159.81,100.41Z"/><path d="M174.29,100.41a2.07,2.07,0,0,0-.79-1.74,9.38,9.38,0,0,0-2.85-1.23,13.39,13.39,0,0,1-3.28-1.38A4.38,4.38,0,0,1,165,92.24a4.15,4.15,0,0,1,1.68-3.4,6.84,6.84,0,0,1,4.37-1.34,7.35,7.35,0,0,1,3.18.66A5.21,5.21,0,0,1,176.45,90a4.79,4.79,0,0,1,.79,2.69h-3a2.66,2.66,0,0,0-.84-2.09,3.41,3.41,0,0,0-2.39-.76,3.66,3.66,0,0,0-2.26.62,2.09,2.09,0,0,0-.8,1.74,1.87,1.87,0,0,0,.87,1.56A10,10,0,0,0,171.72,95a12.65,12.65,0,0,1,3.2,1.35,5,5,0,0,1,1.77,1.73,4.47,4.47,0,0,1,.57,2.29,4.06,4.06,0,0,1-1.64,3.39,7.09,7.09,0,0,1-4.43,1.26,8.31,8.31,0,0,1-3.41-.68,5.77,5.77,0,0,1-2.41-1.89,4.71,4.71,0,0,1-.86-2.82h3a2.76,2.76,0,0,0,1,2.25,4.22,4.22,0,0,0,2.76.8,3.63,3.63,0,0,0,2.32-.63A2,2,0,0,0,174.29,100.41Z"/><path d="M43.56,129.63H37l-1.38,4H32.49l6.44-17.06h2.66l6.46,17.06H45Zm-5.77-2.39h4.94l-2.47-7.08Z"/><path d="M58.9,129.21a2.07,2.07,0,0,0-.79-1.74,9.38,9.38,0,0,0-2.85-1.23A13.39,13.39,0,0,1,52,124.86,4.38,4.38,0,0,1,49.64,121a4.16,4.16,0,0,1,1.69-3.4,6.79,6.79,0,0,1,4.36-1.34,7.35,7.35,0,0,1,3.18.66,5.21,5.21,0,0,1,2.19,1.87,4.8,4.8,0,0,1,.8,2.69h-3a2.66,2.66,0,0,0-.84-2.09,3.4,3.4,0,0,0-2.39-.76,3.66,3.66,0,0,0-2.26.62,2.09,2.09,0,0,0-.8,1.74,1.87,1.87,0,0,0,.87,1.56,10,10,0,0,0,2.86,1.22,13,13,0,0,1,3.2,1.35,5,5,0,0,1,1.76,1.73,4.47,4.47,0,0,1,.57,2.29,4.06,4.06,0,0,1-1.64,3.39,7.09,7.09,0,0,1-4.43,1.26,8.31,8.31,0,0,1-3.41-.68A5.77,5.77,0,0,1,50,131.26a4.71,4.71,0,0,1-.86-2.82h3a2.76,2.76,0,0,0,1,2.25,4.22,4.22,0,0,0,2.76.8,3.63,3.63,0,0,0,2.32-.63A2,2,0,0,0,58.9,129.21Z"/><path d="M84,125.51a10.54,10.54,0,0,1-.76,4.2,6.86,6.86,0,0,1-2.15,2.82L84,134.82l-1.93,1.73-3.63-2.87a7.49,7.49,0,0,1-1.53.15,6.77,6.77,0,0,1-3.69-1,6.7,6.7,0,0,1-2.51-2.89,10,10,0,0,1-.89-4.32v-1a10.36,10.36,0,0,1,.88-4.41,6.6,6.6,0,0,1,2.5-2.92,6.72,6.72,0,0,1,3.68-1,7,7,0,0,1,3.72,1,6.49,6.49,0,0,1,2.49,2.89,10.15,10.15,0,0,1,.89,4.37Zm-3-.89A7.39,7.39,0,0,0,80,120.25a3.56,3.56,0,0,0-3-1.49,3.49,3.49,0,0,0-3,1.51,7.34,7.34,0,0,0-1.11,4.25v1a7.51,7.51,0,0,0,1.08,4.33,3.8,3.8,0,0,0,6.09.06A7.62,7.62,0,0,0,81,125.51Z"/><path d="M93.29,127H90v6.56H87V116.54h6a7,7,0,0,1,4.55,1.32,4.7,4.7,0,0,1,1.61,3.84,4.84,4.84,0,0,1-.83,2.87,5.17,5.17,0,0,1-2.3,1.77l3.83,7.11v.15H96.71ZM90,124.65h3a3.39,3.39,0,0,0,2.34-.76,2.63,2.63,0,0,0,.84-2.07,2.8,2.8,0,0,0-.77-2.12,3.3,3.3,0,0,0-2.33-.77H90Z"/><path d="M121,128a6.13,6.13,0,0,1-2,4.26,6.86,6.86,0,0,1-4.67,1.53,6.67,6.67,0,0,1-3.59-1,6.33,6.33,0,0,1-2.4-2.75,9.93,9.93,0,0,1-.88-4.14v-1.59a9.88,9.88,0,0,1,.86-4.26,6.41,6.41,0,0,1,2.45-2.83,6.81,6.81,0,0,1,3.7-1,6.57,6.57,0,0,1,4.54,1.53,6.39,6.39,0,0,1,2,4.33H118a4.23,4.23,0,0,0-1.08-2.65,3.49,3.49,0,0,0-2.52-.82,3.44,3.44,0,0,0-3,1.42,7,7,0,0,0-1.06,4.14v1.52a7.5,7.5,0,0,0,1,4.22,3.27,3.27,0,0,0,2.9,1.45,3.83,3.83,0,0,0,2.62-.78A4.13,4.13,0,0,0,118,128Z"/><path d="M137.25,125.51a10.56,10.56,0,0,1-.86,4.4,6.59,6.59,0,0,1-2.48,2.91,7.3,7.3,0,0,1-7.41,0,6.7,6.7,0,0,1-2.51-2.89,10.16,10.16,0,0,1-.89-4.32v-1a10.36,10.36,0,0,1,.88-4.41,6.6,6.6,0,0,1,2.5-2.92,6.76,6.76,0,0,1,3.7-1,6.89,6.89,0,0,1,3.69,1,6.49,6.49,0,0,1,2.49,2.89,10.15,10.15,0,0,1,.89,4.37Zm-3-.89a7.45,7.45,0,0,0-1.07-4.34,3.78,3.78,0,0,0-6,0,7.35,7.35,0,0,0-1.11,4.26v1a7.39,7.39,0,0,0,1.1,4.35,3.53,3.53,0,0,0,3,1.54,3.49,3.49,0,0,0,3-1.5,7.55,7.55,0,0,0,1.06-4.39Z"/><path d="M140.21,133.6V116.54h5a7.93,7.93,0,0,1,4,1A6.92,6.92,0,0,1,152,120.4a9.11,9.11,0,0,1,1,4.25v.85a9.11,9.11,0,0,1-1,4.27,6.84,6.84,0,0,1-2.76,2.83,8.18,8.18,0,0,1-4.09,1Zm3-14.67v12.3h1.94a4.45,4.45,0,0,0,3.58-1.46,6.39,6.39,0,0,0,1.27-4.19v-1a6.55,6.55,0,0,0-1.21-4.24,4.28,4.28,0,0,0-3.5-1.46Z"/><path d="M165.86,126h-7v5.25H167v2.37H155.89V116.54H167v2.39h-8.11v4.71h7Z"/></g></g></svg>