<svg xmlns="http://www.w3.org/2000/svg" viewBox="0 0 832 357"><title>placeholder-banner</title><g id="Layer_2" data-name="Layer 2"><g id="Layer_1-2" data-name="Layer 1"><rect x="1" y="1" width="830" height="355" style="fill:#fff;stroke:#000;stroke-miterlimit:10;stroke-width:2px"/><path d="M185.52,211.77V126.46h30.64q16.47,0,25.05,6T249.8,150a20.29,20.29,0,0,1-3.05,11.31,17.76,17.76,0,0,1-9,6.92A18,18,0,0,1,248,174.8a19.09,19.09,0,0,1,3.57,11.72q0,12.54-7.94,18.84t-23.52,6.41ZM206.09,162h10.72q6.74-.06,9.61-2.47t2.87-7.11c0-3.61-1-6.2-3.11-7.79s-5.41-2.38-10-2.38H206.09Zm0,13.47V196h13.47q5.56,0,8.56-2.55a8.93,8.93,0,0,0,3-7.18q0-10.65-10.61-10.72Z" style="fill:none;stroke:#000;stroke-miterlimit:10;stroke-width:2px"/><path d="M311.38,195.83H283.2l-4.93,15.94h-22l31.29-85.31h19.34l31.52,85.31H316.36ZM288.12,180h18.34l-9.2-29.58Z" style="fill:none;stroke:#000;stroke-miterlimit:10;stroke-width:2px"/><path d="M415.91,211.77H395.46l-30.23-53.08v53.08H344.66V126.46h20.57l30.17,53.08V126.46h20.51Z" style="fill:none;stroke:#000;stroke-miterlimit:10;stroke-width:2px"/><path d="M500.17,211.77H479.72l-30.24-53.08v53.08H428.92V126.46h20.56l30.18,53.08V126.46h20.51Z" style="fill:none;stroke:#000;stroke-miterlimit:10;stroke-width:2px"/><path d="M566.09,175.56H533.74V196H572v15.82H513.18V126.46h58.88v15.88H533.74v18h32.35Z" style="fill:none;stroke:#000;stroke-miterlimit:10;stroke-width:2px"/><path d="M612,181.6H600.89v30.17H580.32V126.46H613.9q15.17,0,23.73,6.73t8.55,19q0,8.89-3.6,14.75t-11.28,9.48l17.81,34.45v.88h-22Zm-11.13-15.82h13q5.85,0,8.82-3.09t3-8.6q0-5.52-3-8.67t-8.79-3.14h-13Z" style="fill:none;stroke:#000;stroke-miterlimit:10;stroke-width:2px"/></g></g></svg>