<svg xmlns="http://www.w3.org/2000/svg" xmlns:xlink="http://www.w3.org/1999/xlink" viewBox="0 0 1468.95 809.29"><defs><linearGradient id="linear-gradient" x1="513.06" y1="484.56" x2="1437.43" y2="-49.12" gradientUnits="userSpaceOnUse"><stop offset="0" stop-color="#fff"/><stop offset="0" stop-color="#f6f7ff"/><stop offset="0.14" stop-color="#f1f3fc"/><stop offset="0.2" stop-color="#edf0fa"/><stop offset="0.99" stop-color="#4d92e2"/><stop offset="1" stop-color="#4a90e2"/></linearGradient></defs><title>scalingnow</title><g id="Layer_2" data-name="Layer 2"><g id="Layer_3" data-name="Layer 3"><path d="M373.75,695.44a11.18,11.18,0,0,0-4-9.07Q365.7,683,355,680t-15.63-6.56q-7-5-7-13.16a15.42,15.42,0,0,1,6.51-12.86q6.51-5,16.65-5a27.63,27.63,0,0,1,12.29,2.65,20.07,20.07,0,0,1,8.4,7.39,19.41,19.41,0,0,1,3,10.56h-5.87a14.51,14.51,0,0,0-4.84-11.38q-4.83-4.29-13-4.3-7.92,0-12.6,3.54a11,11,0,0,0-4.69,9.22,10.42,10.42,0,0,0,4.21,8.59q4.21,3.33,13.5,5.86A63.66,63.66,0,0,1,370,679.88a20.13,20.13,0,0,1,7.2,6.51,16.31,16.31,0,0,1,2.41,9,15.59,15.59,0,0,1-6.51,13.07q-6.51,4.92-17.17,4.92a33.79,33.79,0,0,1-13.38-2.6,20.46,20.46,0,0,1-9.23-7.29,18.85,18.85,0,0,1-3.15-10.76H336a13.76,13.76,0,0,0,5.45,11.51q5.44,4.21,14.49,4.22,8.06,0,12.93-3.55A11.09,11.09,0,0,0,373.75,695.44Z" transform="translate(-4.77)"/><path d="M408.73,708.56a15,15,0,0,0,9.92-3.34,11.73,11.73,0,0,0,4.33-8.64h5.45a16.11,16.11,0,0,1-2.94,8.55,18.5,18.5,0,0,1-7.17,6,21.64,21.64,0,0,1-9.59,2.17q-10.1,0-16-7t-5.89-18.85v-1.7a32,32,0,0,1,2.65-13.4,20.38,20.38,0,0,1,7.6-9,21,21,0,0,1,11.58-3.18q8.43,0,13.9,5a18.29,18.29,0,0,1,5.85,13.22H423A13.72,13.72,0,0,0,408.68,665c-5.11,0-9.09,1.85-11.91,5.54s-4.24,8.88-4.24,15.54v1.66q0,9.79,4.24,15.3T408.73,708.56Z" transform="translate(-4.77)"/><path d="M471,712.4a26.87,26.87,0,0,1-1.09-7.16,19.81,19.81,0,0,1-7.6,6,23.36,23.36,0,0,1-9.78,2.1q-7.38,0-12-4.12A13.4,13.4,0,0,1,436,698.8,13.73,13.73,0,0,1,442.26,687q6.23-4.35,17.36-4.35H469.9v-5.83a11.22,11.22,0,0,0-3.39-8.64q-3.39-3.15-9.88-3.15a15.46,15.46,0,0,0-9.8,3,9,9,0,0,0-3.88,7.29l-5.69,0q0-6.1,5.69-10.58a21.84,21.84,0,0,1,14-4.48q8.56,0,13.52,4.29t5.09,12V700.7q0,7.44,1.57,11.13v.57Zm-17.81-4.08a19,19,0,0,0,10.16-2.74,16.14,16.14,0,0,0,6.52-7.35V687H459.76q-8.47.1-13.26,3.1a9.31,9.31,0,0,0-4.78,8.27,9.15,9.15,0,0,0,3.19,7.15A12,12,0,0,0,453.22,708.32Z" transform="translate(-4.77)"/><path d="M495.92,712.4h-5.68V639.65h5.68Z" transform="translate(-4.77)"/><path d="M509.92,646.35a3.78,3.78,0,0,1,1-2.71,3.73,3.73,0,0,1,2.84-1.1,3.84,3.84,0,0,1,2.87,1.1,3.76,3.76,0,0,1,1.06,2.71,3.66,3.66,0,0,1-1.06,2.68,3.87,3.87,0,0,1-2.87,1.08A3.75,3.75,0,0,1,511,649,3.68,3.68,0,0,1,509.92,646.35Zm6.67,66h-5.68V661.15h5.68Z" transform="translate(-4.77)"/><path d="M536.32,661.15l.19,8.76a20.24,20.24,0,0,1,7.2-7.22,18.66,18.66,0,0,1,9.52-2.49q8.24,0,12.27,4.64t4.07,13.93V712.4h-5.64V678.72q0-6.87-2.91-10.23t-9.17-3.36a14.35,14.35,0,0,0-9.3,3.29,19.25,19.25,0,0,0-6,8.88v35.1h-5.64V661.15Z" transform="translate(-4.77)"/><path d="M580.86,686.3q0-12,5.33-19.06a17.2,17.2,0,0,1,14.47-7q10.47,0,15.92,8.34l.28-7.39h5.3v50.2q0,9.9-5.54,15.68t-15,5.78a22.88,22.88,0,0,1-10.21-2.39,19.92,19.92,0,0,1-7.65-6.37l3.18-3.41q6,7.38,14.3,7.39,7.11,0,11.08-4.2t4.12-11.62v-6.44q-5.45,7.58-15.86,7.57a17.08,17.08,0,0,1-14.31-7.1q-5.4-7.11-5.4-19.18Zm5.73,1q0,9.81,3.94,15.47a12.71,12.71,0,0,0,11.08,5.66q10.47,0,14.82-9.38V675.22a16.06,16.06,0,0,0-5.73-7.51,15.44,15.44,0,0,0-9-2.58,12.89,12.89,0,0,0-11.13,5.61Q586.59,676.35,586.59,687.29Z" transform="translate(-4.77)"/><path d="M690.2,712.4h-12l-30.74-48.93V712.4h-12v-69h12l30.83,49.11V643.44H690.2Z" transform="translate(-4.77)"/><path d="M758.33,679.72a42.41,42.41,0,0,1-3.5,17.78,26.54,26.54,0,0,1-10,11.75,29.44,29.44,0,0,1-29.94,0,26.91,26.91,0,0,1-10.13-11.68,40.88,40.88,0,0,1-3.62-17.48v-3.88a42,42,0,0,1,3.57-17.81,27,27,0,0,1,10.09-11.82,27.46,27.46,0,0,1,14.94-4.09,27.75,27.75,0,0,1,14.95,4,26.53,26.53,0,0,1,10.06,11.65,41.8,41.8,0,0,1,3.6,17.69Zm-12-3.6q0-11.46-4.34-17.58a15.28,15.28,0,0,0-24.43,0q-4.4,6.09-4.48,17.22v4q0,11.35,4.43,17.57a14.27,14.27,0,0,0,12.29,6.2q7.95,0,12.24-6.06t4.29-17.71Z" transform="translate(-4.77)"/><path d="M823.29,695.35l10.61-51.91h11.89l-15.92,69H818.41l-13.12-50.35-13.4,50.35H780.38l-15.92-69h11.89l10.71,51.81,13.16-51.81h10Z" transform="translate(-4.77)"/><path d="M853.24,707a6.08,6.08,0,0,1,1.76-4.46,7.37,7.37,0,0,1,9.56,0,6.08,6.08,0,0,1,1.76,4.46,6,6,0,0,1-1.71,4.34,7.54,7.54,0,0,1-9.66,0A6,6,0,0,1,853.24,707Zm11.32-14.84h-9.89l-1.09-48.69H865.7Z" transform="translate(-4.77)"/><path d="M19.2,781.92H8v16H4.77V759.53H17.24q6.15,0,9.6,3a11.33,11.33,0,0,1,1.29,14.82,11,11,0,0,1-5.8,3.9l9.6,16.35v.34H28.48ZM8,779.18H18a9.21,9.21,0,0,0,6.57-2.33,8.76,8.76,0,0,0-.11-12.33q-2.58-2.25-7.25-2.25H8Z" transform="translate(-4.77)"/><path d="M50.19,798.45a12.41,12.41,0,0,1-6.57-1.79,12.24,12.24,0,0,1-4.58-5,15.58,15.58,0,0,1-1.63-7.18v-1.14A16.85,16.85,0,0,1,39,775.93a12.79,12.79,0,0,1,4.44-5.18,11,11,0,0,1,6.17-1.88,10.3,10.3,0,0,1,8.24,3.54q3,3.55,3,9.69v1.77H40.54v.61a11.94,11.94,0,0,0,2.79,8.08,8.84,8.84,0,0,0,7,3.23,10.26,10.26,0,0,0,4.47-.93,10,10,0,0,0,3.52-3l2,1.5A11.5,11.5,0,0,1,50.19,798.45Zm-.58-26.89a7.87,7.87,0,0,0-6,2.61,12,12,0,0,0-3,7H57.76v-.34a10.5,10.5,0,0,0-2.34-6.7A7.3,7.3,0,0,0,49.61,771.56Z" transform="translate(-4.77)"/><path d="M76.34,793.57,85,769.39h3.24L77.61,797.92H75.05l-10.7-28.53h3.24Z" transform="translate(-4.77)"/><path d="M94,761.15A2.05,2.05,0,0,1,96.16,759a2.13,2.13,0,0,1,1.6.62,2.1,2.1,0,0,1,.59,1.5,2.07,2.07,0,0,1-.59,1.5,2.16,2.16,0,0,1-1.6.6,2.1,2.1,0,0,1-1.58-.6A2.06,2.06,0,0,1,94,761.15Zm3.72,36.77H94.55V769.39h3.17Z" transform="translate(-4.77)"/><path d="M118.09,798.45a12.42,12.42,0,0,1-6.58-1.79,12.22,12.22,0,0,1-4.57-5,15.58,15.58,0,0,1-1.64-7.18v-1.14a16.72,16.72,0,0,1,1.6-7.41,12.71,12.71,0,0,1,4.44-5.18,11,11,0,0,1,6.17-1.88,10.31,10.31,0,0,1,8.24,3.54q3,3.55,3.05,9.69v1.77H108.44v.61a12,12,0,0,0,2.78,8.08,8.87,8.87,0,0,0,7,3.23,10.2,10.2,0,0,0,4.47-.93,9.86,9.86,0,0,0,3.52-3l2,1.5A11.51,11.51,0,0,1,118.09,798.45Zm-.58-26.89a7.9,7.9,0,0,0-6,2.61,12.06,12.06,0,0,0-3,7h17.11v-.34a10.45,10.45,0,0,0-2.35-6.7A7.28,7.28,0,0,0,117.51,771.56Z" transform="translate(-4.77)"/><path d="M142.52,791.36l.48,2.45.63-2.58,6.86-21.84h2.69L160,791l.74,3,.61-2.77,5.85-21.89h3.27l-8.31,28.53h-2.68L152.1,775.3l-.35-1.56-.34,1.59-7.2,22.59h-2.69l-8.28-28.53h3.25Z" transform="translate(-4.77)"/><path d="M177,761.15a2.09,2.09,0,0,1,.58-1.5,2.06,2.06,0,0,1,1.58-.62,2.09,2.09,0,0,1,1.59.62,2.07,2.07,0,0,1,.6,1.5,2,2,0,0,1-.6,1.5,2.12,2.12,0,0,1-1.59.6,2.08,2.08,0,0,1-1.58-.6A2.06,2.06,0,0,1,177,761.15Zm3.72,36.77h-3.17V769.39h3.17Z" transform="translate(-4.77)"/><path d="M193,769.39l.1,4.88a11.27,11.27,0,0,1,4-4,10.45,10.45,0,0,1,5.3-1.38c3.06,0,5.33.86,6.83,2.58s2.25,4.31,2.27,7.75v18.72H208.4V779.18q0-3.82-1.62-5.7t-5.11-1.87a8,8,0,0,0-5.18,1.83,10.74,10.74,0,0,0-3.33,4.94v19.54H190V769.39Z" transform="translate(-4.77)"/><path d="M219.17,783.39q0-6.69,3-10.61a9.57,9.57,0,0,1,8.06-3.91,9.9,9.9,0,0,1,8.85,4.64l.16-4.12h3v28q0,5.52-3.09,8.73a11.06,11.06,0,0,1-8.36,3.22A12.8,12.8,0,0,1,225,808a11.07,11.07,0,0,1-4.26-3.55l1.77-1.9a10,10,0,0,0,8,4.11,8.07,8.07,0,0,0,6.17-2.33,9.3,9.3,0,0,0,2.3-6.47v-3.59a10.22,10.22,0,0,1-8.84,4.22,9.52,9.52,0,0,1-8-4q-3-4-3-10.68Zm3.19.56q0,5.46,2.19,8.61a7.09,7.09,0,0,0,6.17,3.15,8.44,8.44,0,0,0,8.26-5.22V777.22a9,9,0,0,0-3.19-4.17,8.6,8.6,0,0,0-5-1.44,7.17,7.17,0,0,0-6.2,3.12Q222.36,777.87,222.36,784Z" transform="translate(-4.77)"/><path d="M287.5,788.48a6.24,6.24,0,0,0-2.24-5.05c-1.49-1.24-4.23-2.41-8.2-3.53a28.59,28.59,0,0,1-8.7-3.65,8.86,8.86,0,0,1-.28-14.49,14.89,14.89,0,0,1,9.27-2.76,15.41,15.41,0,0,1,6.84,1.48,11.31,11.31,0,0,1,4.68,4.11,10.79,10.79,0,0,1,1.66,5.88h-3.27a8.05,8.05,0,0,0-2.69-6.33,10.44,10.44,0,0,0-7.22-2.39,11.37,11.37,0,0,0-7,2,6.16,6.16,0,0,0-2.61,5.14,5.81,5.81,0,0,0,2.34,4.78,21.81,21.81,0,0,0,7.52,3.26,35.44,35.44,0,0,1,7.83,2.93,11.21,11.21,0,0,1,4,3.63,9.09,9.09,0,0,1,1.34,5,8.69,8.69,0,0,1-3.63,7.28q-3.61,2.74-9.55,2.74a18.68,18.68,0,0,1-7.45-1.45,11.39,11.39,0,0,1-5.14-4.06,10.49,10.49,0,0,1-1.76-6h3.25a7.66,7.66,0,0,0,3,6.41,12.8,12.8,0,0,0,8.07,2.35,11.94,11.94,0,0,0,7.19-2A6.19,6.19,0,0,0,287.5,788.48Z" transform="translate(-4.77)"/><path d="M308.32,795.79a8.35,8.35,0,0,0,5.53-1.86,6.56,6.56,0,0,0,2.41-4.81h3a9,9,0,0,1-1.63,4.76,10.35,10.35,0,0,1-4,3.36,12,12,0,0,1-5.34,1.21,11,11,0,0,1-8.9-3.9q-3.29-3.9-3.28-10.5v-.95a17.74,17.74,0,0,1,1.48-7.46,11.35,11.35,0,0,1,4.23-5,11.74,11.74,0,0,1,6.45-1.76,11,11,0,0,1,7.73,2.79,10.2,10.2,0,0,1,3.26,7.36h-3a8.22,8.22,0,0,0-14.6-4.38q-2.36,3.09-2.36,8.65v.92q0,5.46,2.36,8.52A7.94,7.94,0,0,0,308.32,795.79Z" transform="translate(-4.77)"/><path d="M344.36,797.92a14.76,14.76,0,0,1-.61-4,11,11,0,0,1-4.23,3.34,13,13,0,0,1-5.45,1.17,9.53,9.53,0,0,1-6.65-2.29,7.48,7.48,0,0,1-2.55-5.8,7.66,7.66,0,0,1,3.47-6.6q3.46-2.41,9.66-2.42h5.72v-3.25a6.25,6.25,0,0,0-1.88-4.81,7.8,7.8,0,0,0-5.5-1.75,8.57,8.57,0,0,0-5.46,1.69,5,5,0,0,0-2.16,4.06l-3.16,0a7.32,7.32,0,0,1,3.16-5.89,12.19,12.19,0,0,1,7.78-2.49,11.13,11.13,0,0,1,7.53,2.38,8.57,8.57,0,0,1,2.83,6.66v13.5a16.76,16.76,0,0,0,.87,6.2v.31Zm-9.92-2.26a10.6,10.6,0,0,0,5.66-1.53,9,9,0,0,0,3.62-4.09v-6.28h-5.64a14.21,14.21,0,0,0-7.38,1.73,5.18,5.18,0,0,0-2.66,4.6,5.08,5.08,0,0,0,1.78,4A6.65,6.65,0,0,0,334.44,795.66Z" transform="translate(-4.77)"/><path d="M359.56,797.92H356.4v-40.5h3.16Z" transform="translate(-4.77)"/><path d="M368.7,761.15a2.13,2.13,0,0,1,.58-1.5,2.09,2.09,0,0,1,1.59-.62,2.12,2.12,0,0,1,1.59.62,2.06,2.06,0,0,1,.59,1.5,2,2,0,0,1-.59,1.5,2.15,2.15,0,0,1-1.59.6,2,2,0,0,1-2.17-2.1Zm3.72,36.77h-3.16V769.39h3.16Z" transform="translate(-4.77)"/><path d="M384.75,769.39l.11,4.88a11.27,11.27,0,0,1,4-4,10.4,10.4,0,0,1,5.3-1.38c3.05,0,5.33.86,6.82,2.58s2.25,4.31,2.27,7.75v18.72h-3.14V779.18q0-3.82-1.62-5.7t-5.1-1.87a8,8,0,0,0-5.18,1.83,10.76,10.76,0,0,0-3.34,4.94v19.54h-3.13V769.39Z" transform="translate(-4.77)"/><path d="M410.9,783.39q0-6.69,3-10.61a9.55,9.55,0,0,1,8.05-3.91,9.9,9.9,0,0,1,8.86,4.64l.16-4.12h2.95v28q0,5.52-3.08,8.73a11.07,11.07,0,0,1-8.36,3.22,12.77,12.77,0,0,1-5.68-1.33,11,11,0,0,1-4.26-3.55l1.76-1.9a10,10,0,0,0,8,4.11,8.1,8.1,0,0,0,6.17-2.33,9.29,9.29,0,0,0,2.29-6.47v-3.59a10.19,10.19,0,0,1-8.83,4.22,9.51,9.51,0,0,1-8-4q-3-4-3-10.68Zm3.19.56q0,5.46,2.19,8.61a7.07,7.07,0,0,0,6.17,3.15,8.43,8.43,0,0,0,8.25-5.22V777.22a9,9,0,0,0-3.19-4.17,8.6,8.6,0,0,0-5-1.44,7.15,7.15,0,0,0-6.19,3.12Q414.09,777.87,414.09,784Z" transform="translate(-4.77)"/><path d="M479.23,788.48a6.22,6.22,0,0,0-2.25-5.05c-1.49-1.24-4.22-2.41-8.2-3.53a28.59,28.59,0,0,1-8.7-3.65,8.86,8.86,0,0,1-.27-14.49,14.84,14.84,0,0,1,9.26-2.76,15.49,15.49,0,0,1,6.85,1.48,11.31,11.31,0,0,1,4.68,4.11,10.88,10.88,0,0,1,1.66,5.88H479a8.08,8.08,0,0,0-2.69-6.33,10.44,10.44,0,0,0-7.23-2.39,11.39,11.39,0,0,0-7,2,6.16,6.16,0,0,0-2.61,5.14,5.79,5.79,0,0,0,2.35,4.78,21.74,21.74,0,0,0,7.51,3.26,35,35,0,0,1,7.83,2.93,11.13,11.13,0,0,1,4,3.63,9,9,0,0,1,1.35,5,8.69,8.69,0,0,1-3.63,7.28q-3.63,2.74-9.56,2.74a18.68,18.68,0,0,1-7.45-1.45,11.39,11.39,0,0,1-5.14-4.06,10.49,10.49,0,0,1-1.75-6h3.24a7.66,7.66,0,0,0,3,6.41,12.8,12.8,0,0,0,8.07,2.35,12,12,0,0,0,7.2-2A6.19,6.19,0,0,0,479.23,788.48Z" transform="translate(-4.77)"/><path d="M487.76,783.24a16.66,16.66,0,0,1,1.6-7.41,11.95,11.95,0,0,1,11.11-7,11.75,11.75,0,0,1,9.23,4q3.52,4,3.53,10.59v.66a17,17,0,0,1-1.59,7.45,12,12,0,0,1-4.5,5.1,12.37,12.37,0,0,1-6.62,1.79,11.73,11.73,0,0,1-9.21-4q-3.56-4-3.55-10.59Zm3.16.87a12.94,12.94,0,0,0,2.65,8.39,9,9,0,0,0,13.87,0,13.32,13.32,0,0,0,2.65-8.66v-.6a14.51,14.51,0,0,0-1.21-6,9.71,9.71,0,0,0-3.4-4.2,8.65,8.65,0,0,0-5-1.49,8.43,8.43,0,0,0-6.88,3.3,13.4,13.4,0,0,0-2.67,8.67Z" transform="translate(-4.77)"/><path d="M524,797.92h-3.16v-40.5H524Z" transform="translate(-4.77)"/><path d="M551.71,794.31q-2.85,4.14-9.1,4.14-4.56,0-6.93-2.65T533.25,788V769.39h3.14v18.17q0,8.15,6.59,8.15,6.85,0,8.68-5.67V769.39h3.16v28.53h-3.06Z" transform="translate(-4.77)"/><path d="M568.68,762.09v7.3h5.91V772h-5.91v19a6,6,0,0,0,.86,3.54,3.32,3.32,0,0,0,2.86,1.16,19.2,19.2,0,0,0,2.56-.27l.13,2.57a10.52,10.52,0,0,1-3.38.44,5.66,5.66,0,0,1-4.72-1.88,8.93,8.93,0,0,1-1.47-5.56V772h-5.25v-2.59h5.25v-7.3Z" transform="translate(-4.77)"/><path d="M581.7,761.15a2.05,2.05,0,0,1,2.16-2.12,2.13,2.13,0,0,1,1.6.62,2.1,2.1,0,0,1,.59,1.5,2.07,2.07,0,0,1-.59,1.5,2.16,2.16,0,0,1-1.6.6,2.1,2.1,0,0,1-1.58-.6A2.06,2.06,0,0,1,581.7,761.15Zm3.72,36.77h-3.17V769.39h3.17Z" transform="translate(-4.77)"/><path d="M593,783.24a16.66,16.66,0,0,1,1.6-7.41,12,12,0,0,1,11.11-7,11.75,11.75,0,0,1,9.23,4q3.52,4,3.53,10.59v.66a17,17,0,0,1-1.59,7.45,12,12,0,0,1-4.5,5.1,12.37,12.37,0,0,1-6.62,1.79,11.73,11.73,0,0,1-9.21-4q-3.56-4-3.55-10.59Zm3.17.87a12.89,12.89,0,0,0,2.65,8.39,8.94,8.94,0,0,0,13.86,0,13.32,13.32,0,0,0,2.65-8.66v-.6a14.51,14.51,0,0,0-1.21-6,9.71,9.71,0,0,0-3.4-4.2,8.65,8.65,0,0,0-5-1.49,8.43,8.43,0,0,0-6.88,3.3,13.39,13.39,0,0,0-2.66,8.67Z" transform="translate(-4.77)"/><path d="M628.75,769.39l.1,4.88a11.27,11.27,0,0,1,4-4,10.45,10.45,0,0,1,5.3-1.38q4.59,0,6.83,2.58c1.49,1.72,2.25,4.31,2.27,7.75v18.72h-3.14V779.18q0-3.82-1.62-5.7t-5.1-1.87a8,8,0,0,0-5.19,1.83,10.74,10.74,0,0,0-3.33,4.94v19.54h-3.14V769.39Z" transform="translate(-4.77)"/><path d="M673.25,790.67a4.5,4.5,0,0,0-1.89-3.77,14.6,14.6,0,0,0-5.68-2.23,25.45,25.45,0,0,1-5.89-1.84,7.88,7.88,0,0,1-3.12-2.55,6.38,6.38,0,0,1-1-3.64,6.78,6.78,0,0,1,2.82-5.57,11.39,11.39,0,0,1,7.23-2.2,11.66,11.66,0,0,1,7.65,2.36,7.55,7.55,0,0,1,2.89,6.15h-3.16a5.09,5.09,0,0,0-2.1-4.16,9.47,9.47,0,0,0-10.28-.28,4.26,4.26,0,0,0-1.89,3.6,3.91,3.91,0,0,0,1.57,3.31,16.64,16.64,0,0,0,5.72,2.15,26.87,26.87,0,0,1,6.23,2.08,8.14,8.14,0,0,1,3.07,2.66,7.34,7.34,0,0,1-1.91,9.55,12.48,12.48,0,0,1-7.61,2.16,12.76,12.76,0,0,1-8.08-2.41,7.43,7.43,0,0,1-3.1-6.11h3.16a5.5,5.5,0,0,0,2.34,4.32,9.57,9.57,0,0,0,5.68,1.54,9,9,0,0,0,5.33-1.45A4.37,4.37,0,0,0,673.25,790.67Z" transform="translate(-4.77)"/><path d="M700.41,797.92V772h-4.72v-2.59h4.72v-3.45c0-2.92.75-5.16,2.23-6.72a8.15,8.15,0,0,1,6.21-2.35,12.39,12.39,0,0,1,3.35.44l-.24,2.62a12.3,12.3,0,0,0-2.87-.32,5.13,5.13,0,0,0-4.06,1.63,6.67,6.67,0,0,0-1.45,4.61v3.54h6.8V772h-6.8v25.94Z" transform="translate(-4.77)"/><path d="M715,783.24a16.79,16.79,0,0,1,1.59-7.41,12,12,0,0,1,11.12-7,11.76,11.76,0,0,1,9.23,4q3.53,4,3.53,10.59v.66a16.86,16.86,0,0,1-1.6,7.45,12,12,0,0,1-4.49,5.1,12.39,12.39,0,0,1-6.62,1.79,11.77,11.77,0,0,1-9.22-4q-3.54-4-3.54-10.59Zm3.16.87a12.94,12.94,0,0,0,2.65,8.39,9,9,0,0,0,13.87,0,13.32,13.32,0,0,0,2.65-8.66v-.6a14.51,14.51,0,0,0-1.21-6,9.71,9.71,0,0,0-3.4-4.2,8.65,8.65,0,0,0-5-1.49,8.42,8.42,0,0,0-6.88,3.3,13.4,13.4,0,0,0-2.67,8.67Z" transform="translate(-4.77)"/><path d="M761,772.08a12.07,12.07,0,0,0-2.13-.18,7.7,7.7,0,0,0-5,1.65,9,9,0,0,0-2.91,4.78v19.59h-3.14V769.39h3.08l.06,4.54a8.38,8.38,0,0,1,8-5.06,5.15,5.15,0,0,1,2.08.34Z" transform="translate(-4.77)"/><path d="M802.53,779.52h-18v15.66h20.64v2.74H781.33V759.53h23.75v2.74H784.57v14.51h18Z" transform="translate(-4.77)"/><path d="M817,762.09v7.3h5.9V772H817v19a6,6,0,0,0,.85,3.54,3.34,3.34,0,0,0,2.86,1.16,19.2,19.2,0,0,0,2.56-.27l.13,2.57a10.45,10.45,0,0,1-3.37.44,5.64,5.64,0,0,1-4.72-1.88A8.86,8.86,0,0,1,813.8,791V772h-5.25v-2.59h5.25v-7.3Z" transform="translate(-4.77)"/><path d="M833.3,774.22a11.21,11.21,0,0,1,4-4,10.41,10.41,0,0,1,5.3-1.39q4.57,0,6.83,2.58c1.49,1.72,2.25,4.31,2.26,7.75v18.72h-3.14V779.18q0-3.82-1.62-5.7t-5.1-1.87a8,8,0,0,0-5.18,1.83,10.84,10.84,0,0,0-3.34,4.94v19.54h-3.13v-40.5h3.13Z" transform="translate(-4.77)"/><path d="M871.61,798.45a12.42,12.42,0,0,1-6.58-1.79,12.24,12.24,0,0,1-4.58-5,15.58,15.58,0,0,1-1.63-7.18v-1.14a16.72,16.72,0,0,1,1.6-7.41,12.71,12.71,0,0,1,4.44-5.18,11,11,0,0,1,6.17-1.88,10.31,10.31,0,0,1,8.24,3.54q3,3.55,3,9.69v1.77H862v.61a11.93,11.93,0,0,0,2.78,8.08,8.86,8.86,0,0,0,7,3.23,10.2,10.2,0,0,0,4.47-.93,10,10,0,0,0,3.52-3l2,1.5A11.51,11.51,0,0,1,871.61,798.45ZM871,771.56a7.87,7.87,0,0,0-6,2.61,12,12,0,0,0-3,7h17.11v-.34a10.44,10.44,0,0,0-2.34-6.7A7.28,7.28,0,0,0,871,771.56Z" transform="translate(-4.77)"/><path d="M902.4,772.08a12.11,12.11,0,0,0-2.14-.18,7.72,7.72,0,0,0-5,1.65,9,9,0,0,0-2.91,4.78v19.59h-3.14V769.39h3.09l.05,4.54a8.38,8.38,0,0,1,8-5.06,5.15,5.15,0,0,1,2.08.34Z" transform="translate(-4.77)"/><path d="M918.68,798.45a12.45,12.45,0,0,1-6.58-1.79,12.22,12.22,0,0,1-4.57-5,15.58,15.58,0,0,1-1.64-7.18v-1.14a16.86,16.86,0,0,1,1.6-7.41,12.71,12.71,0,0,1,4.44-5.18,11,11,0,0,1,6.17-1.88,10.3,10.3,0,0,1,8.24,3.54q3,3.55,3,9.69v1.77H909v.61a12,12,0,0,0,2.78,8.08,8.87,8.87,0,0,0,7,3.23,10.2,10.2,0,0,0,4.47-.93,9.78,9.78,0,0,0,3.52-3l2,1.5A11.51,11.51,0,0,1,918.68,798.45Zm-.58-26.89a7.9,7.9,0,0,0-6,2.61,12.06,12.06,0,0,0-3,7h17.11v-.34a10.45,10.45,0,0,0-2.35-6.7A7.27,7.27,0,0,0,918.1,771.56Z" transform="translate(-4.77)"/><path d="M954.64,794.31q-2.85,4.14-9.1,4.14-4.56,0-6.93-2.65T936.18,788V769.39h3.14v18.17q0,8.15,6.59,8.15,6.86,0,8.68-5.67V769.39h3.16v28.53h-3.06Z" transform="translate(-4.77)"/><path d="M969.58,769.39l.11,4.64a10.52,10.52,0,0,1,3.95-3.87,10.85,10.85,0,0,1,5.27-1.29q6.75,0,8.57,5.53a10.81,10.81,0,0,1,4.09-4.1,11.39,11.39,0,0,1,5.64-1.43q9.18,0,9.36,10v19h-3.16v-18.8q0-3.82-1.65-5.67t-5.29-1.84a8.38,8.38,0,0,0-5.74,2.2,7.73,7.73,0,0,0-2.61,5.23v18.88H985v-19c0-2.45-.59-4.27-1.73-5.47s-2.87-1.81-5.23-1.81a7.89,7.89,0,0,0-5.11,1.7,10,10,0,0,0-3.17,5.05v19.56h-3.16V769.39Z" transform="translate(-4.77)"/><path d="M1029.94,797.92V759.53h10.73a16.75,16.75,0,0,1,8.47,2.15,14.91,14.91,0,0,1,5.84,6.16,19.34,19.34,0,0,1,2.1,9.12v3.53a19.42,19.42,0,0,1-2.09,9.13,14.84,14.84,0,0,1-5.86,6.14,17.24,17.24,0,0,1-8.69,2.16Zm3.25-35.65v32.91h7.27a12.52,12.52,0,0,0,9.73-4q3.68-4,3.67-10.89v-3.38q0-6.61-3.61-10.6a12.32,12.32,0,0,0-9.52-4Z" transform="translate(-4.77)"/><path d="M1086.23,787.14H1068.8l-4,10.78h-3.4L1076,759.53h3.09l14.52,38.39h-3.37Zm-16.43-2.74h15.4l-7.7-20.91Z" transform="translate(-4.77)"/><path d="M1122.19,784q0,6.67-3,10.58a9.38,9.38,0,0,1-7.91,3.92q-5.85,0-9-4.11v14.55h-3.14v-39.5h2.93l.15,4a10.13,10.13,0,0,1,8.94-4.56,9.49,9.49,0,0,1,8,3.87q2.91,3.88,2.92,10.76Zm-3.17-.56c0-3.63-.75-6.51-2.24-8.62a7.22,7.22,0,0,0-6.25-3.16,8.33,8.33,0,0,0-8.17,5.46v13.68a8.35,8.35,0,0,0,3.24,3.75,9.38,9.38,0,0,0,5,1.29,7.15,7.15,0,0,0,6.21-3.18Q1119,789.43,1119,783.39Z" transform="translate(-4.77)"/><path d="M1152.87,784q0,6.67-2.95,10.58a9.4,9.4,0,0,1-7.92,3.92q-5.85,0-9-4.11v14.55h-3.14v-39.5h2.93l.16,4a10.11,10.11,0,0,1,8.94-4.56,9.48,9.48,0,0,1,8,3.87q2.92,3.88,2.92,10.76Zm-3.17-.56c0-3.63-.74-6.51-2.24-8.62a7.21,7.21,0,0,0-6.25-3.16,8.33,8.33,0,0,0-8.17,5.46v13.68a8.41,8.41,0,0,0,3.24,3.75,9.39,9.39,0,0,0,5,1.29,7.17,7.17,0,0,0,6.21-3.18Q1149.7,789.43,1149.7,783.39Z" transform="translate(-4.77)"/><path d="M1177.7,790.67a4.5,4.5,0,0,0-1.89-3.77,14.6,14.6,0,0,0-5.68-2.23,25.45,25.45,0,0,1-5.89-1.84,7.77,7.77,0,0,1-3.11-2.55,6.31,6.31,0,0,1-1-3.64,6.78,6.78,0,0,1,2.82-5.57,11.39,11.39,0,0,1,7.23-2.2,11.71,11.71,0,0,1,7.66,2.36,7.57,7.57,0,0,1,2.88,6.15h-3.16a5.09,5.09,0,0,0-2.1-4.16,9.47,9.47,0,0,0-10.28-.28,4.26,4.26,0,0,0-1.89,3.6,3.91,3.91,0,0,0,1.57,3.31,16.73,16.73,0,0,0,5.72,2.15,26.87,26.87,0,0,1,6.23,2.08,8.14,8.14,0,0,1,3.07,2.66,7.34,7.34,0,0,1-1.91,9.55,12.48,12.48,0,0,1-7.61,2.16,12.76,12.76,0,0,1-8.08-2.41,7.43,7.43,0,0,1-3.1-6.11h3.17a5.5,5.5,0,0,0,2.33,4.32,9.57,9.57,0,0,0,5.68,1.54,9,9,0,0,0,5.33-1.45A4.37,4.37,0,0,0,1177.7,790.67Z" transform="translate(-4.77)"/><polygon points="483.54 433.44 1447.91 2 1466.95 2 594.14 496.11 483.54 433.44" style="fill:url(#linear-gradient)"/><polygon points="483.54 433.44 594.14 496.11 594.14 254.02 483.54 433.44" style="fill:none;stroke:#212121;stroke-linecap:round;stroke-linejoin:round;stroke-width:4px"/><polygon points="483.54 456.61 594.14 609.55 594.14 522.29 483.54 456.61" style="fill:none;stroke:#212121;stroke-linejoin:round;stroke-width:4px"/><polygon points="594.76 609.55 704.74 456.61 594.14 522.29 594.76 609.55" style="fill:none;stroke:#212121;stroke-linejoin:round;stroke-width:4px"/><polygon points="594.79 496.11 705.39 433.44 594.79 254.02 594.79 496.11" style="fill:none;stroke:#212121;stroke-linecap:round;stroke-linejoin:round;stroke-width:4px"/><polyline points="700.89 436.1 1466.95 2 1447.91 2 483.54 433.44" style="fill:none;stroke:#212121;stroke-linecap:round;stroke-linejoin:round;stroke-width:4px"/></g></g></svg>