<svg xmlns="http://www.w3.org/2000/svg" viewBox="0 0 1176.09 169.64"><title>sn-type</title><g id="Layer_2" data-name="Layer 2"><g id="Layer_3" data-name="Layer 3"><path d="M373.75,66a11.18,11.18,0,0,0-4-9.07q-4-3.33-14.73-6.34t-15.63-6.56q-7-5-7-13.17A15.43,15.43,0,0,1,338.87,18q6.51-4.95,16.65-4.95a27.76,27.76,0,0,1,12.29,2.65,20.14,20.14,0,0,1,8.4,7.39,19.42,19.42,0,0,1,3,10.57h-5.87a14.49,14.49,0,0,0-4.84-11.38q-4.83-4.31-13-4.3-7.92,0-12.6,3.53a11,11,0,0,0-4.69,9.23,10.45,10.45,0,0,0,4.21,8.59q4.21,3.32,13.5,5.85T370,50.47a20,20,0,0,1,7.2,6.51,16.28,16.28,0,0,1,2.41,9A15.58,15.58,0,0,1,373.11,79q-6.51,4.94-17.17,4.93a33.62,33.62,0,0,1-13.38-2.61A20.4,20.4,0,0,1,333.33,74a18.84,18.84,0,0,1-3.15-10.75H336a13.78,13.78,0,0,0,5.45,11.51Q346.9,79,355.94,79q8.06,0,12.93-3.55A11.09,11.09,0,0,0,373.75,66Z" transform="translate(-4.77 -10.23)"/><path d="M408.73,79.14a15,15,0,0,0,9.92-3.34A11.71,11.71,0,0,0,423,67.16h5.45a16,16,0,0,1-2.94,8.55,18.42,18.42,0,0,1-7.17,6,21.64,21.64,0,0,1-9.59,2.18q-10.1,0-16-7t-5.89-18.85V56.36A32,32,0,0,1,389.5,43a20.44,20.44,0,0,1,7.6-9,21,21,0,0,1,11.58-3.17q8.43,0,13.9,5A18.27,18.27,0,0,1,428.43,49H423a13.9,13.9,0,0,0-4.33-9.71,14,14,0,0,0-10-3.69c-5.11,0-9.09,1.84-11.91,5.54s-4.24,8.87-4.24,15.53v1.66q0,9.81,4.24,15.3T408.73,79.14Z" transform="translate(-4.77 -10.23)"/><path d="M471,83a26.78,26.78,0,0,1-1.09-7.15,19.7,19.7,0,0,1-7.6,6,23.37,23.37,0,0,1-9.78,2.11q-7.38,0-12-4.12A13.42,13.42,0,0,1,436,69.39a13.71,13.71,0,0,1,6.23-11.84q6.23-4.36,17.36-4.36H469.9V47.36a11.22,11.22,0,0,0-3.39-8.64q-3.39-3.15-9.88-3.15a15.46,15.46,0,0,0-9.8,3A9,9,0,0,0,443,45.89l-5.69,0c0-4.08,1.9-7.6,5.69-10.59a21.89,21.89,0,0,1,14-4.47q8.56,0,13.52,4.28t5.09,12V71.28q0,7.44,1.57,11.13V83Zm-17.81-4.07a19,19,0,0,0,10.16-2.75,16.16,16.16,0,0,0,6.52-7.34V57.55H459.76q-8.47.09-13.26,3.1a9.3,9.3,0,0,0-4.78,8.26,9.18,9.18,0,0,0,3.19,7.16A12.06,12.06,0,0,0,453.22,78.91Z" transform="translate(-4.77 -10.23)"/><path d="M495.92,83h-5.68V10.23h5.68Z" transform="translate(-4.77 -10.23)"/><path d="M509.92,16.93a3.76,3.76,0,0,1,1-2.7,3.7,3.7,0,0,1,2.84-1.11,3.81,3.81,0,0,1,2.87,1.11,3.73,3.73,0,0,1,1.06,2.7,3.7,3.7,0,0,1-1.06,2.69,3.87,3.87,0,0,1-2.87,1.08,3.64,3.64,0,0,1-3.88-3.77ZM516.59,83h-5.68V31.73h5.68Z" transform="translate(-4.77 -10.23)"/><path d="M536.32,31.73l.19,8.77a20.27,20.27,0,0,1,7.2-7.23,18.75,18.75,0,0,1,9.52-2.48q8.24,0,12.27,4.64t4.07,13.92V83h-5.64V49.3q0-6.86-2.91-10.23t-9.17-3.36a14.35,14.35,0,0,0-9.3,3.29,19.3,19.3,0,0,0-6,8.88V83h-5.64V31.73Z" transform="translate(-4.77 -10.23)"/><path d="M580.86,56.88q0-12,5.33-19.06a17.19,17.19,0,0,1,14.47-7q10.47,0,15.92,8.33l.28-7.39h5.3V81.94q0,9.9-5.54,15.68t-15,5.77A22.75,22.75,0,0,1,591.4,101a19.83,19.83,0,0,1-7.65-6.37l3.18-3.41q6,7.4,14.3,7.39,7.11,0,11.08-4.19t4.12-11.63V76.35q-5.45,7.58-15.86,7.58a17.09,17.09,0,0,1-14.31-7.11q-5.4-7.09-5.4-19.18Zm5.73,1q0,9.79,3.94,15.46A12.69,12.69,0,0,0,601.61,79q10.47,0,14.82-9.38V45.8a16.11,16.11,0,0,0-5.73-7.51,15.44,15.44,0,0,0-9-2.58,12.89,12.89,0,0,0-11.13,5.61Q586.59,46.95,586.59,57.88Z" transform="translate(-4.77 -10.23)"/><path d="M690.2,83h-12L647.48,34.05V83h-12V14h12l30.83,49.11V14H690.2Z" transform="translate(-4.77 -10.23)"/><path d="M758.33,50.3a42.35,42.35,0,0,1-3.5,17.78,26.54,26.54,0,0,1-10,11.75,29.38,29.38,0,0,1-29.94,0,26.88,26.88,0,0,1-10.13-11.67,40.91,40.91,0,0,1-3.62-17.48V46.79A42,42,0,0,1,704.69,29a26.91,26.91,0,0,1,10.09-11.82,27.47,27.47,0,0,1,14.94-4.1,27.75,27.75,0,0,1,14.95,4.05,26.59,26.59,0,0,1,10.06,11.65,41.83,41.83,0,0,1,3.6,17.69Zm-12-3.6q0-11.46-4.34-17.57T729.72,23a14.13,14.13,0,0,0-12.14,6.08q-4.4,6.09-4.48,17.22v4q0,11.37,4.43,17.57a14.25,14.25,0,0,0,12.29,6.21q7.95,0,12.24-6.07t4.29-17.71Z" transform="translate(-4.77 -10.23)"/><path d="M823.29,65.93,833.9,14h11.89L829.87,83H818.41L805.29,32.63,791.89,83H780.38L764.46,14h11.89l10.71,51.81L800.22,14h10Z" transform="translate(-4.77 -10.23)"/><path d="M853.24,77.56A6.07,6.07,0,0,1,855,73.1a7.34,7.34,0,0,1,9.56,0,6.07,6.07,0,0,1,1.76,4.46,6,6,0,0,1-1.71,4.34,7.57,7.57,0,0,1-9.66,0A6,6,0,0,1,853.24,77.56Zm11.32-14.85h-9.89L853.58,14H865.7Z" transform="translate(-4.77 -10.23)"/><path d="M19.2,152.5H8v16H4.77V130.12H17.24q6.15,0,9.6,3a11.34,11.34,0,0,1,1.29,14.83,11,11,0,0,1-5.8,3.9l9.6,16.34v.35H28.48ZM8,149.76H18a9.2,9.2,0,0,0,6.57-2.32,8.78,8.78,0,0,0-.11-12.34q-2.58-2.23-7.25-2.24H8Z" transform="translate(-4.77 -10.23)"/><path d="M50.19,169A12.24,12.24,0,0,1,39,162.25a15.62,15.62,0,0,1-1.63-7.19v-1.13A16.79,16.79,0,0,1,39,146.52a12.75,12.75,0,0,1,4.44-5.19,11,11,0,0,1,6.17-1.88A10.28,10.28,0,0,1,57.85,143q3,3.54,3,9.69v1.76H40.54v.61a11.92,11.92,0,0,0,2.79,8.08,8.84,8.84,0,0,0,7,3.23,10.41,10.41,0,0,0,4.47-.92,10.05,10.05,0,0,0,3.52-2.95l2,1.5Q56.81,169,50.19,169Zm-.58-26.89a7.87,7.87,0,0,0-6,2.61,12,12,0,0,0-3,7H57.76v-.34a10.54,10.54,0,0,0-2.34-6.7A7.3,7.3,0,0,0,49.61,142.14Z" transform="translate(-4.77 -10.23)"/><path d="M76.34,164.16,85,140h3.24L77.61,168.51H75.05L64.35,140h3.24Z" transform="translate(-4.77 -10.23)"/><path d="M94,131.74a2.1,2.1,0,0,1,.58-1.51,2.06,2.06,0,0,1,1.58-.61,2.06,2.06,0,0,1,2.19,2.12,2.06,2.06,0,0,1-.59,1.49,2.16,2.16,0,0,1-1.6.6,2.1,2.1,0,0,1-1.58-.6A2.05,2.05,0,0,1,94,131.74Zm3.72,36.77H94.55V140h3.17Z" transform="translate(-4.77 -10.23)"/><path d="M118.09,169a12.33,12.33,0,0,1-6.58-1.79,12.19,12.19,0,0,1-4.57-5,15.62,15.62,0,0,1-1.64-7.19v-1.13a16.66,16.66,0,0,1,1.6-7.41,12.68,12.68,0,0,1,4.44-5.19,11,11,0,0,1,6.17-1.88,10.29,10.29,0,0,1,8.24,3.55q3,3.54,3.05,9.69v1.76H108.44v.61a12,12,0,0,0,2.78,8.08,8.87,8.87,0,0,0,7,3.23,10.35,10.35,0,0,0,4.47-.92,10,10,0,0,0,3.52-2.95l2,1.5A11.51,11.51,0,0,1,118.09,169Zm-.58-26.89a7.9,7.9,0,0,0-6,2.61,12.09,12.09,0,0,0-3,7h17.11v-.34a10.49,10.49,0,0,0-2.35-6.7A7.28,7.28,0,0,0,117.51,142.14Z" transform="translate(-4.77 -10.23)"/><path d="M142.52,161.94l.48,2.45.63-2.58L150.49,140h2.69L160,161.63l.74,3,.61-2.77L167.15,140h3.27l-8.31,28.53h-2.68l-7.33-22.63-.35-1.55-.34,1.58-7.2,22.6h-2.69L133.24,140h3.25Z" transform="translate(-4.77 -10.23)"/><path d="M177,131.74a2.1,2.1,0,0,1,.58-1.51,2,2,0,0,1,1.58-.61,2.07,2.07,0,0,1,2.19,2.12,2,2,0,0,1-.6,1.49,2.12,2.12,0,0,1-1.59.6,2.08,2.08,0,0,1-1.58-.6A2.05,2.05,0,0,1,177,131.74Zm3.72,36.77h-3.17V140h3.17Z" transform="translate(-4.77 -10.23)"/><path d="M193,140l.1,4.88a11.38,11.38,0,0,1,4-4,10.45,10.45,0,0,1,5.3-1.38c3.06,0,5.33.86,6.83,2.58s2.25,4.31,2.27,7.76v18.72H208.4V149.76q0-3.82-1.62-5.7c-1.07-1.24-2.77-1.87-5.11-1.87a8,8,0,0,0-5.18,1.83,10.78,10.78,0,0,0-3.33,4.95v19.54H190V140Z" transform="translate(-4.77 -10.23)"/><path d="M219.17,154q0-6.71,3-10.61a9.55,9.55,0,0,1,8.06-3.92,9.92,9.92,0,0,1,8.85,4.64l.16-4.11h3v28q0,5.5-3.09,8.72a11,11,0,0,1-8.36,3.22,12.67,12.67,0,0,1-5.68-1.33,11.07,11.07,0,0,1-4.26-3.55l1.77-1.9a10,10,0,0,0,8,4.12,8.07,8.07,0,0,0,6.17-2.34,9.3,9.3,0,0,0,2.3-6.47v-3.58a10.22,10.22,0,0,1-8.84,4.21,9.5,9.5,0,0,1-8-3.95q-3-4-3-10.68Zm3.19.55q0,5.46,2.19,8.61a7.09,7.09,0,0,0,6.17,3.15,8.44,8.44,0,0,0,8.26-5.22V147.81a9.07,9.07,0,0,0-3.19-4.18,8.6,8.6,0,0,0-5-1.44,7.16,7.16,0,0,0-6.2,3.13Q222.36,148.44,222.36,154.53Z" transform="translate(-4.77 -10.23)"/><path d="M287.5,159.07a6.22,6.22,0,0,0-2.24-5c-1.49-1.24-4.23-2.42-8.2-3.53a28.81,28.81,0,0,1-8.7-3.66,8.86,8.86,0,0,1-.28-14.49,15,15,0,0,1,9.27-2.75,15.28,15.28,0,0,1,6.84,1.48,11.18,11.18,0,0,1,4.68,4.11,10.79,10.79,0,0,1,1.66,5.88h-3.27a8.06,8.06,0,0,0-2.69-6.34,10.48,10.48,0,0,0-7.22-2.39,11.37,11.37,0,0,0-7,2,6.13,6.13,0,0,0-2.61,5.13,5.81,5.81,0,0,0,2.34,4.78,21.6,21.6,0,0,0,7.52,3.27,35.44,35.44,0,0,1,7.83,2.93,11.28,11.28,0,0,1,4,3.62,9.13,9.13,0,0,1,1.34,5,8.67,8.67,0,0,1-3.63,7.28q-3.61,2.75-9.55,2.74a18.68,18.68,0,0,1-7.45-1.45,11.33,11.33,0,0,1-5.14-4.06,10.46,10.46,0,0,1-1.76-6h3.25a7.67,7.67,0,0,0,3,6.41,12.86,12.86,0,0,0,8.07,2.34,11.94,11.94,0,0,0,7.19-2A6.16,6.16,0,0,0,287.5,159.07Z" transform="translate(-4.77 -10.23)"/><path d="M308.32,166.37a8.35,8.35,0,0,0,5.53-1.86,6.54,6.54,0,0,0,2.41-4.81h3a9,9,0,0,1-1.63,4.76,10.35,10.35,0,0,1-4,3.36,12,12,0,0,1-5.34,1.21,11,11,0,0,1-8.9-3.9q-3.29-3.9-3.28-10.49v-.95a17.74,17.74,0,0,1,1.48-7.46,11.24,11.24,0,0,1,4.23-5,11.66,11.66,0,0,1,6.45-1.77,11,11,0,0,1,7.73,2.8,10.17,10.17,0,0,1,3.26,7.35h-3a7.64,7.64,0,0,0-8-7.46,7.9,7.9,0,0,0-6.64,3.08q-2.36,3.09-2.36,8.65v.93q0,5.44,2.36,8.51A7.94,7.94,0,0,0,308.32,166.37Z" transform="translate(-4.77 -10.23)"/><path d="M344.36,168.51a14.9,14.9,0,0,1-.61-4,11,11,0,0,1-4.23,3.33,13,13,0,0,1-5.45,1.17,9.53,9.53,0,0,1-6.65-2.29,7.46,7.46,0,0,1-2.55-5.8,7.63,7.63,0,0,1,3.47-6.59q3.46-2.43,9.66-2.43h5.72v-3.24a6.23,6.23,0,0,0-1.88-4.81,7.8,7.8,0,0,0-5.5-1.76,8.63,8.63,0,0,0-5.46,1.69,5,5,0,0,0-2.16,4.06l-3.16,0a7.33,7.33,0,0,1,3.16-5.89,12.19,12.19,0,0,1,7.78-2.49,11.13,11.13,0,0,1,7.53,2.39,8.57,8.57,0,0,1,2.83,6.65V162a16.76,16.76,0,0,0,.87,6.2v.32Zm-9.92-2.27a10.6,10.6,0,0,0,5.66-1.53,8.94,8.94,0,0,0,3.62-4.09v-6.27h-5.64a14,14,0,0,0-7.38,1.73,5.15,5.15,0,0,0-2.66,4.6,5.09,5.09,0,0,0,1.78,4A6.69,6.69,0,0,0,334.44,166.24Z" transform="translate(-4.77 -10.23)"/><path d="M359.56,168.51H356.4V128h3.16Z" transform="translate(-4.77 -10.23)"/><path d="M368.7,131.74a2.14,2.14,0,0,1,.58-1.51,2.09,2.09,0,0,1,1.59-.61,2.12,2.12,0,0,1,1.59.61,2.07,2.07,0,0,1,.59,1.51,2,2,0,0,1-.59,1.49,2.15,2.15,0,0,1-1.59.6,2.12,2.12,0,0,1-1.59-.6A2.09,2.09,0,0,1,368.7,131.74Zm3.72,36.77h-3.16V140h3.16Z" transform="translate(-4.77 -10.23)"/><path d="M384.75,140l.11,4.88a11.38,11.38,0,0,1,4-4,10.4,10.4,0,0,1,5.3-1.38c3.05,0,5.33.86,6.82,2.58s2.25,4.31,2.27,7.76v18.72h-3.14V149.76q0-3.82-1.62-5.7c-1.06-1.24-2.76-1.87-5.1-1.87a8,8,0,0,0-5.18,1.83,10.79,10.79,0,0,0-3.34,4.95v19.54h-3.13V140Z" transform="translate(-4.77 -10.23)"/><path d="M410.9,154q0-6.71,3-10.61a9.53,9.53,0,0,1,8.05-3.92,9.92,9.92,0,0,1,8.86,4.64l.16-4.11h2.95v28q0,5.5-3.08,8.72a11,11,0,0,1-8.36,3.22,12.64,12.64,0,0,1-5.68-1.33,11,11,0,0,1-4.26-3.55l1.76-1.9a10,10,0,0,0,8,4.12,8.1,8.1,0,0,0,6.17-2.34,9.29,9.29,0,0,0,2.29-6.47v-3.58q-3,4.22-8.83,4.21a9.48,9.48,0,0,1-8-3.95q-3-4-3-10.68Zm3.19.55q0,5.46,2.19,8.61a7.07,7.07,0,0,0,6.17,3.15,8.43,8.43,0,0,0,8.25-5.22V147.81a9,9,0,0,0-3.19-4.18,8.6,8.6,0,0,0-5-1.44,7.14,7.14,0,0,0-6.19,3.13Q414.09,148.44,414.09,154.53Z" transform="translate(-4.77 -10.23)"/><path d="M479.23,159.07a6.2,6.2,0,0,0-2.25-5q-2.24-1.86-8.2-3.53a28.81,28.81,0,0,1-8.7-3.66,8.86,8.86,0,0,1-.27-14.49,14.9,14.9,0,0,1,9.26-2.75,15.35,15.35,0,0,1,6.85,1.48,11.18,11.18,0,0,1,4.68,4.11,10.88,10.88,0,0,1,1.66,5.88H479a8.09,8.09,0,0,0-2.69-6.34,10.49,10.49,0,0,0-7.23-2.39,11.39,11.39,0,0,0-7,2,6.13,6.13,0,0,0-2.61,5.13,5.79,5.79,0,0,0,2.35,4.78,21.54,21.54,0,0,0,7.51,3.27,35,35,0,0,1,7.83,2.93,11.2,11.2,0,0,1,4,3.62,9.06,9.06,0,0,1,1.35,5,8.67,8.67,0,0,1-3.63,7.28q-3.63,2.75-9.56,2.74a18.68,18.68,0,0,1-7.45-1.45,11.33,11.33,0,0,1-5.14-4.06,10.45,10.45,0,0,1-1.75-6h3.24a7.67,7.67,0,0,0,3,6.41,12.86,12.86,0,0,0,8.07,2.34,12,12,0,0,0,7.2-2A6.16,6.16,0,0,0,479.23,159.07Z" transform="translate(-4.77 -10.23)"/><path d="M487.76,153.82a16.72,16.72,0,0,1,1.6-7.41,11.95,11.95,0,0,1,11.11-7,11.75,11.75,0,0,1,9.23,4q3.52,4,3.53,10.59v.66a17,17,0,0,1-1.59,7.45,11.93,11.93,0,0,1-4.5,5.1,12.28,12.28,0,0,1-6.62,1.79,11.73,11.73,0,0,1-9.21-4q-3.56-4-3.55-10.59Zm3.16.87a13,13,0,0,0,2.65,8.4,9,9,0,0,0,13.87,0,13.36,13.36,0,0,0,2.65-8.66v-.61a14.54,14.54,0,0,0-1.21-6,9.71,9.71,0,0,0-3.4-4.2,8.72,8.72,0,0,0-5-1.49,8.41,8.41,0,0,0-6.88,3.31,13.37,13.37,0,0,0-2.67,8.66Z" transform="translate(-4.77 -10.23)"/><path d="M524,168.51h-3.16V128H524Z" transform="translate(-4.77 -10.23)"/><path d="M551.71,164.89q-2.85,4.14-9.1,4.14-4.56,0-6.93-2.65c-1.58-1.76-2.39-4.38-2.43-7.84V140h3.14v18.16q0,8.16,6.59,8.15,6.85,0,8.68-5.67V140h3.16v28.53h-3.06Z" transform="translate(-4.77 -10.23)"/><path d="M568.68,132.67V140h5.91v2.58h-5.91v19a6,6,0,0,0,.86,3.54,3.3,3.3,0,0,0,2.86,1.16A20.56,20.56,0,0,0,575,166l.13,2.56a10.25,10.25,0,0,1-3.38.44,5.63,5.63,0,0,1-4.72-1.88,8.92,8.92,0,0,1-1.47-5.55v-19h-5.25V140h5.25v-7.31Z" transform="translate(-4.77 -10.23)"/><path d="M581.7,131.74a2.1,2.1,0,0,1,.58-1.51,2.06,2.06,0,0,1,1.58-.61,2.06,2.06,0,0,1,2.19,2.12,2.06,2.06,0,0,1-.59,1.49,2.16,2.16,0,0,1-1.6.6,2.1,2.1,0,0,1-1.58-.6A2.05,2.05,0,0,1,581.7,131.74Zm3.72,36.77h-3.17V140h3.17Z" transform="translate(-4.77 -10.23)"/><path d="M593,153.82a16.72,16.72,0,0,1,1.6-7.41,12,12,0,0,1,11.11-7,11.75,11.75,0,0,1,9.23,4q3.52,4,3.53,10.59v.66a17,17,0,0,1-1.59,7.45,11.86,11.86,0,0,1-4.5,5.1,12.28,12.28,0,0,1-6.62,1.79,11.73,11.73,0,0,1-9.21-4q-3.56-4-3.55-10.59Zm3.17.87a12.94,12.94,0,0,0,2.65,8.4,9,9,0,0,0,13.86,0,13.36,13.36,0,0,0,2.65-8.66v-.61a14.54,14.54,0,0,0-1.21-6,9.71,9.71,0,0,0-3.4-4.2,8.72,8.72,0,0,0-5-1.49,8.41,8.41,0,0,0-6.88,3.31,13.36,13.36,0,0,0-2.66,8.66Z" transform="translate(-4.77 -10.23)"/><path d="M628.75,140l.1,4.88a11.38,11.38,0,0,1,4-4,10.45,10.45,0,0,1,5.3-1.38q4.59,0,6.83,2.58c1.49,1.73,2.25,4.31,2.27,7.76v18.72h-3.14V149.76q0-3.82-1.62-5.7c-1.07-1.24-2.77-1.87-5.1-1.87a8,8,0,0,0-5.19,1.83,10.78,10.78,0,0,0-3.33,4.95v19.54h-3.14V140Z" transform="translate(-4.77 -10.23)"/><path d="M673.25,161.26a4.47,4.47,0,0,0-1.89-3.77,14.45,14.45,0,0,0-5.68-2.23,25.39,25.39,0,0,1-5.89-1.85,7.86,7.86,0,0,1-3.12-2.54,6.41,6.41,0,0,1-1-3.64,6.8,6.8,0,0,1,2.82-5.58,11.39,11.39,0,0,1,7.23-2.2,11.71,11.71,0,0,1,7.65,2.36,7.57,7.57,0,0,1,2.89,6.16h-3.16a5.12,5.12,0,0,0-2.1-4.17,9.47,9.47,0,0,0-10.28-.28,4.29,4.29,0,0,0-1.89,3.6,3.9,3.9,0,0,0,1.57,3.31,16.64,16.64,0,0,0,5.72,2.15,27.36,27.36,0,0,1,6.23,2.08,8.07,8.07,0,0,1,3.07,2.67,7.32,7.32,0,0,1-1.91,9.54,12.48,12.48,0,0,1-7.61,2.16,12.76,12.76,0,0,1-8.08-2.41,7.41,7.41,0,0,1-3.1-6.1h3.16a5.5,5.5,0,0,0,2.34,4.31,9.5,9.5,0,0,0,5.68,1.54,9,9,0,0,0,5.33-1.45A4.36,4.36,0,0,0,673.25,161.26Z" transform="translate(-4.77 -10.23)"/><path d="M700.41,168.51V142.56h-4.72V140h4.72v-3.46c0-2.91.75-5.16,2.23-6.72a8.18,8.18,0,0,1,6.21-2.35,12,12,0,0,1,3.35.45l-.24,2.61a12.32,12.32,0,0,0-2.87-.31,5.16,5.16,0,0,0-4.06,1.62,6.69,6.69,0,0,0-1.45,4.61V140h6.8v2.58h-6.8v25.95Z" transform="translate(-4.77 -10.23)"/><path d="M715,153.82a16.85,16.85,0,0,1,1.59-7.41,12,12,0,0,1,11.12-7,11.76,11.76,0,0,1,9.23,4q3.53,4,3.53,10.59v.66a16.86,16.86,0,0,1-1.6,7.45,11.84,11.84,0,0,1-4.49,5.1A12.3,12.3,0,0,1,727.8,169a11.77,11.77,0,0,1-9.22-4q-3.54-4-3.54-10.59Zm3.16.87a13,13,0,0,0,2.65,8.4,9,9,0,0,0,13.87,0,13.36,13.36,0,0,0,2.65-8.66v-.61a14.54,14.54,0,0,0-1.21-6,9.71,9.71,0,0,0-3.4-4.2,8.72,8.72,0,0,0-5-1.49,8.4,8.4,0,0,0-6.88,3.31,13.37,13.37,0,0,0-2.67,8.66Z" transform="translate(-4.77 -10.23)"/><path d="M761,142.67a11.18,11.18,0,0,0-2.13-.19,7.7,7.7,0,0,0-5,1.65,9,9,0,0,0-2.91,4.79v19.59h-3.14V140h3.08l.06,4.53a8.39,8.39,0,0,1,8-5.06,5.15,5.15,0,0,1,2.08.34Z" transform="translate(-4.77 -10.23)"/><path d="M802.53,150.1h-18v15.66h20.64v2.75H781.33V130.12h23.75v2.74H784.57v14.5h18Z" transform="translate(-4.77 -10.23)"/><path d="M817,132.67V140h5.9v2.58H817v19a6,6,0,0,0,.85,3.54,3.31,3.31,0,0,0,2.86,1.16,20.56,20.56,0,0,0,2.56-.26l.13,2.56A10.18,10.18,0,0,1,820,169c-2.16,0-3.74-.62-4.72-1.88a8.85,8.85,0,0,1-1.48-5.55v-19h-5.25V140h5.25v-7.31Z" transform="translate(-4.77 -10.23)"/><path d="M833.3,144.8a11.18,11.18,0,0,1,4-4,10.42,10.42,0,0,1,5.3-1.4q4.57,0,6.83,2.58c1.49,1.73,2.25,4.31,2.26,7.76v18.72h-3.14V149.76q0-3.82-1.62-5.7c-1.06-1.24-2.76-1.87-5.1-1.87a8,8,0,0,0-5.18,1.83A10.87,10.87,0,0,0,833.3,149v19.54h-3.13V128h3.13Z" transform="translate(-4.77 -10.23)"/><path d="M871.61,169a12.24,12.24,0,0,1-11.16-6.78,15.62,15.62,0,0,1-1.63-7.19v-1.13a16.66,16.66,0,0,1,1.6-7.41,12.68,12.68,0,0,1,4.44-5.19,11,11,0,0,1,6.17-1.88,10.29,10.29,0,0,1,8.24,3.55q3,3.54,3,9.69v1.76H862v.61a11.92,11.92,0,0,0,2.78,8.08,8.86,8.86,0,0,0,7,3.23,10.35,10.35,0,0,0,4.47-.92,10.05,10.05,0,0,0,3.52-2.95l2,1.5A11.51,11.51,0,0,1,871.61,169ZM871,142.14a7.87,7.87,0,0,0-6,2.61,12,12,0,0,0-3,7h17.11v-.34a10.49,10.49,0,0,0-2.34-6.7A7.28,7.28,0,0,0,871,142.14Z" transform="translate(-4.77 -10.23)"/><path d="M902.4,142.67a11.21,11.21,0,0,0-2.14-.19,7.72,7.72,0,0,0-5,1.65,9,9,0,0,0-2.91,4.79v19.59h-3.14V140h3.09l.05,4.53a8.39,8.39,0,0,1,8-5.06,5.15,5.15,0,0,1,2.08.34Z" transform="translate(-4.77 -10.23)"/><path d="M918.68,169a12.36,12.36,0,0,1-6.58-1.79,12.19,12.19,0,0,1-4.57-5,15.62,15.62,0,0,1-1.64-7.19v-1.13a16.8,16.8,0,0,1,1.6-7.41,12.68,12.68,0,0,1,4.44-5.19,11,11,0,0,1,6.17-1.88,10.28,10.28,0,0,1,8.24,3.55q3,3.54,3,9.69v1.76H909v.61a12,12,0,0,0,2.78,8.08,8.87,8.87,0,0,0,7,3.23,10.35,10.35,0,0,0,4.47-.92,9.88,9.88,0,0,0,3.52-2.95l2,1.5A11.51,11.51,0,0,1,918.68,169Zm-.58-26.89a7.9,7.9,0,0,0-6,2.61,12.09,12.09,0,0,0-3,7h17.11v-.34a10.49,10.49,0,0,0-2.35-6.7A7.27,7.27,0,0,0,918.1,142.14Z" transform="translate(-4.77 -10.23)"/><path d="M954.64,164.89q-2.85,4.14-9.1,4.14-4.56,0-6.93-2.65c-1.58-1.76-2.39-4.38-2.43-7.84V140h3.14v18.16q0,8.16,6.59,8.15,6.86,0,8.68-5.67V140h3.16v28.53h-3.06Z" transform="translate(-4.77 -10.23)"/><path d="M969.58,140l.11,4.64a10.55,10.55,0,0,1,3.95-3.88,10.85,10.85,0,0,1,5.27-1.29q6.75,0,8.57,5.54a10.74,10.74,0,0,1,4.09-4.1,11.3,11.3,0,0,1,5.64-1.44q9.18,0,9.36,10v19h-3.16v-18.8q0-3.83-1.65-5.67t-5.29-1.85a8.42,8.42,0,0,0-5.74,2.2,7.75,7.75,0,0,0-2.61,5.24v18.88H985v-19c0-2.44-.59-4.27-1.73-5.47s-2.87-1.81-5.23-1.81a8,8,0,0,0-5.11,1.7,10,10,0,0,0-3.17,5.05v19.57h-3.16V140Z" transform="translate(-4.77 -10.23)"/><path d="M1029.94,168.51V130.12h10.73a16.74,16.74,0,0,1,8.47,2.14,15,15,0,0,1,5.84,6.16,19.34,19.34,0,0,1,2.1,9.12v3.54a19.35,19.35,0,0,1-2.09,9.12,14.78,14.78,0,0,1-5.86,6.14,17.14,17.14,0,0,1-8.69,2.17Zm3.25-35.65v32.9h7.27a12.52,12.52,0,0,0,9.73-4q3.68-4,3.67-10.88v-3.38q0-6.63-3.61-10.61a12.31,12.31,0,0,0-9.52-4Z" transform="translate(-4.77 -10.23)"/><path d="M1086.23,157.72H1068.8l-4,10.79h-3.4L1076,130.12h3.09l14.52,38.39h-3.37ZM1069.8,155h15.4l-7.7-20.91Z" transform="translate(-4.77 -10.23)"/><path d="M1122.19,154.53q0,6.67-3,10.59a9.4,9.4,0,0,1-7.91,3.91q-5.85,0-9-4.11v14.56h-3.14V140h2.93l.15,4a10.13,10.13,0,0,1,8.94-4.56,9.48,9.48,0,0,1,8,3.88q2.91,3.87,2.92,10.75ZM1119,154q0-5.46-2.24-8.62a7.23,7.23,0,0,0-6.25-3.17,8.33,8.33,0,0,0-8.17,5.46v13.68a8.3,8.3,0,0,0,3.24,3.75,9.38,9.38,0,0,0,5,1.29,7.15,7.15,0,0,0,6.21-3.18C1118.28,161.08,1119,158,1119,154Z" transform="translate(-4.77 -10.23)"/><path d="M1152.87,154.53q0,6.67-2.95,10.59A9.41,9.41,0,0,1,1142,169q-5.85,0-9-4.11v14.56h-3.14V140h2.93l.16,4a10.11,10.11,0,0,1,8.94-4.56,9.46,9.46,0,0,1,8,3.88q2.92,3.87,2.92,10.75Zm-3.17-.55c0-3.64-.74-6.51-2.24-8.62a7.22,7.22,0,0,0-6.25-3.17,8.33,8.33,0,0,0-8.17,5.46v13.68a8.36,8.36,0,0,0,3.24,3.75,9.39,9.39,0,0,0,5,1.29,7.17,7.17,0,0,0,6.21-3.18C1149,161.08,1149.7,158,1149.7,154Z" transform="translate(-4.77 -10.23)"/><path d="M1177.7,161.26a4.47,4.47,0,0,0-1.89-3.77,14.45,14.45,0,0,0-5.68-2.23,25.39,25.39,0,0,1-5.89-1.85,7.75,7.75,0,0,1-3.11-2.54,6.33,6.33,0,0,1-1-3.64,6.8,6.8,0,0,1,2.82-5.58,11.39,11.39,0,0,1,7.23-2.2,11.76,11.76,0,0,1,7.66,2.36,7.58,7.58,0,0,1,2.88,6.16h-3.16a5.12,5.12,0,0,0-2.1-4.17,9.47,9.47,0,0,0-10.28-.28,4.29,4.29,0,0,0-1.89,3.6,3.9,3.9,0,0,0,1.57,3.31,16.73,16.73,0,0,0,5.72,2.15,27.36,27.36,0,0,1,6.23,2.08,8.07,8.07,0,0,1,3.07,2.67,7.32,7.32,0,0,1-1.91,9.54,12.48,12.48,0,0,1-7.61,2.16,12.76,12.76,0,0,1-8.08-2.41,7.41,7.41,0,0,1-3.1-6.1h3.17a5.49,5.49,0,0,0,2.33,4.31,9.5,9.5,0,0,0,5.68,1.54,9,9,0,0,0,5.33-1.45A4.36,4.36,0,0,0,1177.7,161.26Z" transform="translate(-4.77 -10.23)"/></g></g></svg>