<svg xmlns="http://www.w3.org/2000/svg" viewBox="0 0 223.7 116.88"><title>ways-to-donate</title><g id="Layer_2" data-name="Layer 2"><g id="Layer_1-2" data-name="Layer 1"><path d="M17.88,51.94l2.06-7.5L30.69,9.25h1.87L43.25,44.44l2,7.5,2.13-7.5L56.78,9.25h1.85L46.38,54.75H44.47L33.19,16.81,31.59,12l-1.53,4.81L18.69,54.75H16.78L4.5,9.25H6.38l9.43,35.19Z" transform="translate(-3.29 -9.25)" style="fill:#fff"/><path d="M86.75,54.75a23.39,23.39,0,0,1-.62-6.19,13.55,13.55,0,0,1-5.47,5,16.93,16.93,0,0,1-7.85,1.79,10.9,10.9,0,0,1-7.54-2.55,8.46,8.46,0,0,1-2.86-6.64,8.58,8.58,0,0,1,4.2-7.46q4.2-2.79,11.17-2.85h8.35V30.94a8.33,8.33,0,0,0-2.68-6.6C81.67,22.78,79.13,22,75.81,22a12.29,12.29,0,0,0-7.72,2.38A7.15,7.15,0,0,0,65,30.25l-1.69-.06a8.64,8.64,0,0,1,3.63-7,13.79,13.79,0,0,1,8.87-2.88c3.65,0,6.54.91,8.69,2.74a9.78,9.78,0,0,1,3.31,7.7V46.91c0,3.7.29,6.23.88,7.56v.28ZM72.81,53.69A15.14,15.14,0,0,0,81,51.56a13.09,13.09,0,0,0,5.15-6v-8H78.31q-7.25,0-11.09,2.88a7.07,7.07,0,0,0-3.13,5.84,6.75,6.75,0,0,0,2.47,5.25A9.16,9.16,0,0,0,72.81,53.69Z" transform="translate(-3.29 -9.25)" style="fill:#fff"/><path d="M108.56,52.13l.22-.63,11.69-30.56h1.87L107.22,60.63l-.75,1.87q-2.44,5.91-8.06,5.91a6.15,6.15,0,0,1-2.5-.35l0-1.62a8.27,8.27,0,0,0,2.28.28,6.43,6.43,0,0,0,4.4-1.54,12.21,12.21,0,0,0,3-5l2.07-5.58L94.19,20.94H96Z" transform="translate(-3.29 -9.25)" style="fill:#fff"/><path d="M149.63,46.47q0-6.16-10.5-8.38-6.31-1.34-8.79-3.45a7.24,7.24,0,0,1-2.46-5.8A7.37,7.37,0,0,1,131,22.72a13,13,0,0,1,8.17-2.41A13.8,13.8,0,0,1,148,22.92a8.5,8.5,0,0,1,3.31,7h-1.72a7,7,0,0,0-2.87-5.69,11.72,11.72,0,0,0-7.5-2.28,11.5,11.5,0,0,0-7,1.94,5.83,5.83,0,0,0-2.6,4.84,5.9,5.9,0,0,0,1,3.58,8.36,8.36,0,0,0,3.16,2.34,32.54,32.54,0,0,0,6.37,2A27.34,27.34,0,0,1,146.69,39a9,9,0,0,1,3.53,3.11,8.29,8.29,0,0,1,1.09,4.39A7.64,7.64,0,0,1,148,52.94a14.09,14.09,0,0,1-8.59,2.44,15,15,0,0,1-9.17-2.58,7.92,7.92,0,0,1-3.49-6.64h1.69a7,7,0,0,0,3.14,5.54,13.59,13.59,0,0,0,7.83,2,12,12,0,0,0,7.36-2.11A6.24,6.24,0,0,0,149.63,46.47Z" transform="translate(-3.29 -9.25)" style="fill:#fff"/><path d="M179.72,11.81v9.13h7.69v1.69h-7.69v24A9.6,9.6,0,0,0,180.89,52a4.41,4.41,0,0,0,3.92,1.72,25.6,25.6,0,0,0,3.35-.28l.28,1.59a11.53,11.53,0,0,1-3.53.38c-2.46,0-4.22-.69-5.28-2.05S178,49.81,178,46.87V22.63h-6.25V20.94H178V11.81Z" transform="translate(-3.29 -9.25)" style="fill:#fff"/><path d="M193,37.19a19.84,19.84,0,0,1,1.86-8.71,14.32,14.32,0,0,1,5.25-6,14,14,0,0,1,7.67-2.16,13.93,13.93,0,0,1,12.89,8A19.68,19.68,0,0,1,222.59,37v1.5a19.9,19.9,0,0,1-1.84,8.72,14.24,14.24,0,0,1-5.23,6,14.8,14.8,0,0,1-15.35,0,14.25,14.25,0,0,1-5.26-6A19.59,19.59,0,0,1,193,38.69Zm1.69,1.31a17.68,17.68,0,0,0,1.67,7.73A13.11,13.11,0,0,0,201,51.72a12.09,12.09,0,0,0,6.82,2,11.73,11.73,0,0,0,9.43-4.35,16.84,16.84,0,0,0,3.64-11.18v-1a17.67,17.67,0,0,0-1.69-7.69A13.49,13.49,0,0,0,214.55,24a12,12,0,0,0-6.77-2,11.71,11.71,0,0,0-9.44,4.41,16.8,16.8,0,0,0-3.65,11.09Z" transform="translate(-3.29 -9.25)" style="fill:#fff"/><path d="M3.29,125.55V83.6H16.8a19.79,19.79,0,0,1,10,2.53,17.83,17.83,0,0,1,6.93,7.11,21.51,21.51,0,0,1,2.52,10.3v1.93a21.67,21.67,0,0,1-2.44,10.33A17.79,17.79,0,0,1,27,122.94a19.39,19.39,0,0,1-9.86,2.61ZM13.4,91.41v26.36h3.52a7.87,7.87,0,0,0,6.68-3.1q2.32-3.09,2.33-9.2v-1.81c0-4.06-.78-7.11-2.33-9.17a8,8,0,0,0-6.8-3.08Z" transform="translate(-3.29 -9.25)" style="fill:#fff"/><path d="M77,105.44a24.84,24.84,0,0,1-2.27,10.86,16.89,16.89,0,0,1-6.47,7.28,18,18,0,0,1-9.55,2.55,18.32,18.32,0,0,1-9.51-2.47,16.86,16.86,0,0,1-6.47-7,24.15,24.15,0,0,1-2.43-10.52v-2.36a24.79,24.79,0,0,1,2.26-10.87A16.83,16.83,0,0,1,49,85.59,18.15,18.15,0,0,1,58.6,83a18,18,0,0,1,9.51,2.53,17.07,17.07,0,0,1,6.49,7.22A24.09,24.09,0,0,1,77,103.51Zm-10.28-1.76c0-4.16-.7-7.33-2.09-9.49a6.7,6.7,0,0,0-6-3.24q-7.6,0-8,11.41l0,3.08c0,4.11.69,7.27,2,9.48a6.68,6.68,0,0,0,6.08,3.31,6.6,6.6,0,0,0,5.9-3.25q2.09-3.26,2.11-9.37Z" transform="translate(-3.29 -9.25)" style="fill:#fff"/><path d="M117.2,125.55H107.14L92.28,99.45v26.1H82.17V83.6H92.28l14.83,26.11V83.6H117.2Z" transform="translate(-3.29 -9.25)" style="fill:#fff"/><path d="M147.94,117.71H134.08l-2.42,7.84h-10.8L136.24,83.6h9.51l15.5,42H150.39Zm-11.44-7.8h9L141,95.36Z" transform="translate(-3.29 -9.25)" style="fill:#fff"/><path d="M193.77,91.41H181.18v34.14H171.07V91.41H158.71V83.6h35.06Z" transform="translate(-3.29 -9.25)" style="fill:#fff"/><path d="M224.05,107.75h-15.9v10h18.78v7.78H198V83.6h29v7.81H208.15v8.85h15.9Z" transform="translate(-3.29 -9.25)" style="fill:#fff"/></g></g></svg>